<?xml version="1.0" encoding="utf-8" ?>
<svg baseProfile="full" height="401" version="1.1" viewBox="0 0 622 401" width="622" xmlns="http://www.w3.org/2000/svg" xmlns:ev="http://www.w3.org/2001/xml-events" xmlns:xlink="http://www.w3.org/1999/xlink"><defs /><path d="M 204.00,87.50 L 203.00,87.50 L 202.00,87.50 L 201.00,87.50 L 200.00,87.50 L 199.00,87.50 L 198.00,87.50 L 197.00,87.50 L 196.00,87.50 L 195.00,87.50 L 194.00,87.50 L 193.00,87.50 L 192.00,87.50 L 191.00,87.50 L 190.00,87.50 L 189.00,87.50 L 188.00,87.50 L 187.00,87.50 L 186.00,87.50 L 185.00,87.50 L 184.00,87.50 L 183.00,87.50 L 182.00,87.50 L 181.00,87.50 L 180.00,87.50 L 179.00,87.50 L 178.00,87.50 L 177.00,87.50 L 176.00,87.50 L 175.00,87.50 L 174.00,87.50 L 173.00,87.50 L 172.00,87.50 L 171.00,87.50 L 170.00,87.50 L 169.00,87.50 L 168.00,87.50 L 167.00,87.50 L 166.00,87.50 L 165.00,87.50 L 164.00,87.50 L 163.00,87.50 L 162.00,87.50 L 161.00,87.50 L 160.00,87.50 L 159.00,87.50 L 158.00,87.50 L 157.00,87.50 L 156.00,87.50 L 155.00,87.50 L 154.00,87.50 L 153.00,87.50 L 152.00,87.50 L 151.00,87.50 L 150.00,87.50 L 149.00,87.50 L 148.00,87.50 L 147.00,87.50 L 146.00,87.50 L 145.00,87.50 L 144.00,87.50 L 143.00,87.50 L 142.00,87.50 L 141.00,87.50 L 140.00,87.50 L 139.00,87.50 L 138.00,87.50 L 137.00,87.50 L 136.00,87.50 L 135.00,87.50 L 134.00,87.50 L 133.00,87.50 L 132.00,87.50 L 131.00,87.50 L 130.00,87.50 L 129.00,87.50 L 128.00,87.50 L 127.00,87.50 L 126.00,87.50 L 125.00,87.50 L 124.00,87.50 L 123.00,87.50 L 122.00,87.50 L 121.00,87.50 L 120.00,87.50 L 119.00,87.50 L 118.00,87.50 L 117.00,87.50 L 116.00,87.50 L 115.00,87.50 L 114.00,87.50 L 113.00,87.50 L 112.00,87.50 L 111.00,87.50 L 110.00,87.50 L 109.00,87.50 L 108.00,87.50 L 107.00,87.50 L 106.00,87.50 L 105.00,87.50 L 104.00,87.50 L 103.00,87.50 L 102.00,87.50 L 101.00,87.50 L 100.00,87.50 L 99.00,87.50 L 98.00,87.50 L 97.00,87.50 L 96.00,87.50 L 95.00,87.50 L 94.00,87.50 L 93.00,87.50 L 92.00,87.50 L 91.00,87.50 L 90.00,87.50 L 89.00,87.50 L 88.00,87.50 L 87.00,87.50 L 86.50,87.00 L 86.00,86.50 L 85.50,86.00 L 85.50,85.00 L 85.50,84.00 L 85.50,83.00 L 85.50,82.00 L 85.50,81.00 L 85.50,80.00 L 85.50,79.00 L 85.50,78.00 L 85.50,77.00 L 85.50,76.00 L 85.50,75.00 L 85.50,74.00 L 85.50,73.00 L 85.50,72.00 L 85.50,71.00 L 85.50,70.00 L 85.50,69.00 L 85.50,68.00 L 85.50,67.00 L 85.50,66.00 L 85.50,65.00 L 85.50,64.00 L 85.50,63.00 L 85.50,62.00 L 85.50,61.00 L 85.50,60.00 L 86.00,59.50 L 86.50,59.00 L 87.00,58.50 L 88.00,58.50 L 89.00,58.50 L 90.00,58.50 L 91.00,58.50 L 92.00,58.50 L 93.00,58.50 L 94.00,58.50 L 95.00,58.50 L 96.00,58.50 L 97.00,58.50 L 98.00,58.50 L 99.00,58.50 L 100.00,58.50 L 101.00,58.50 L 102.00,58.50 L 103.00,58.50 L 104.00,58.50 L 105.00,58.50 L 106.00,58.50 L 107.00,58.50 L 108.00,58.50 L 109.00,58.50 L 110.00,58.50 L 111.00,58.50 L 112.00,58.50 L 113.00,58.50 L 114.00,58.50 L 115.00,58.50 L 116.00,58.50 L 117.00,58.50 L 118.00,58.50 L 119.00,58.50 L 120.00,58.50 L 121.00,58.50 L 122.00,58.50 L 123.00,58.50 L 124.00,58.50 L 125.00,58.50 L 126.00,58.50 L 127.00,58.50 L 128.00,58.50 L 129.00,58.50 L 130.00,58.50 L 131.00,58.50 L 132.00,58.50 L 133.00,58.50 L 134.00,58.50 L 135.00,58.50 L 136.00,58.50 L 137.00,58.50 L 138.00,58.50 L 139.00,58.50 L 140.00,58.50 L 141.00,58.50 L 142.00,58.50 L 143.00,58.50 L 144.00,58.50 L 145.00,58.50 L 146.00,58.50 L 147.00,58.50 L 148.00,58.50 L 149.00,58.50 L 150.00,58.50 L 151.00,58.50 L 152.00,58.50 L 153.00,58.50 L 154.00,58.50 L 155.00,58.50 L 156.00,58.50 L 157.00,58.50 L 158.00,58.50 L 159.00,58.50 L 160.00,58.50 L 161.00,58.50 L 162.00,58.50 L 163.00,58.50 L 164.00,58.50 L 165.00,58.50 L 166.00,58.50 L 167.00,58.50 L 168.00,58.50 L 169.00,58.50 L 170.00,58.50 L 171.00,58.50 L 172.00,58.50 L 173.00,58.50 L 174.00,58.50 L 175.00,58.50 L 176.00,58.50 L 177.00,58.50 L 178.00,58.50 L 179.00,58.50 L 180.00,58.50 L 181.00,58.50 L 182.00,58.50 L 183.00,58.50 L 184.00,58.50 L 185.00,58.50 L 186.00,58.50 L 187.00,58.50 L 188.00,58.50 L 189.00,58.50 L 190.00,58.50 L 191.00,58.50 L 192.00,58.50 L 193.00,58.50 L 194.00,58.50 L 195.00,58.50 L 196.00,58.50 L 197.00,58.50 L 198.00,58.50 L 199.00,58.50 L 200.00,58.50 L 201.00,58.50 L 202.00,58.50 L 203.00,58.50 L 204.00,58.50 L 204.50,59.00 L 205.00,59.50 L 205.50,60.00 L 205.50,61.00 L 205.50,62.00 L 205.50,63.00 L 205.50,64.00 L 205.50,65.00 L 205.50,66.00 L 205.50,67.00 L 205.50,68.00 L 205.50,69.00 L 205.50,70.00 L 205.50,71.00 L 205.50,72.00 L 205.50,73.00 L 205.50,74.00 L 205.50,75.00 L 205.50,76.00 L 205.50,77.00 L 205.50,78.00 L 205.50,79.00 L 205.50,80.00 L 205.50,81.00 L 205.50,82.00 L 205.50,83.00 L 205.50,84.00 L 205.50,85.00 L 205.50,86.00 L 205.00,86.50 L 204.50,87.00 L 204.00,87.50 Z" fill="#34359a" fill-rule="evenodd" stroke="none" /><path d="M 296.00,193.50 L 295.00,193.50 L 294.00,193.50 L 293.00,193.50 L 292.00,193.50 L 291.00,193.50 L 290.00,193.50 L 289.00,193.50 L 288.00,193.50 L 287.00,193.50 L 286.00,193.50 L 285.00,193.50 L 284.00,193.50 L 283.00,193.50 L 282.00,193.50 L 281.00,193.50 L 280.00,193.50 L 279.00,193.50 L 278.00,193.50 L 277.00,193.50 L 276.00,193.50 L 275.00,193.50 L 274.00,193.50 L 273.00,193.50 L 272.00,193.50 L 271.00,193.50 L 270.00,193.50 L 269.00,193.50 L 268.00,193.50 L 267.00,193.50 L 266.00,193.50 L 265.00,193.50 L 264.50,193.00 L 264.50,192.00 L 264.00,191.50 L 263.50,191.00 L 263.50,190.00 L 263.00,189.50 L 262.50,189.00 L 262.00,188.50 L 261.50,188.00 L 261.50,187.00 L 261.50,186.00 L 261.00,185.50 L 260.50,185.00 L 260.50,184.00 L 260.50,183.00 L 260.00,182.50 L 259.50,182.00 L 259.50,181.00 L 259.00,180.50 L 258.50,180.00 L 258.50,179.00 L 258.00,178.50 L 257.50,178.00 L 257.50,177.00 L 257.00,176.50 L 256.50,176.00 L 256.50,175.00 L 256.50,174.00 L 256.00,173.50 L 255.50,173.00 L 255.50,172.00 L 255.50,171.00 L 255.50,170.00 L 255.00,169.50 L 254.50,169.00 L 254.50,168.00 L 254.00,167.50 L 253.50,167.00 L 253.00,166.50 L 252.50,166.00 L 252.50,165.00 L 252.50,164.00 L 252.50,163.00 L 252.00,162.50 L 251.50,162.00 L 251.50,161.00 L 251.00,160.50 L 250.50,160.00 L 250.50,159.00 L 250.00,158.50 L 249.50,158.00 L 249.50,157.00 L 249.00,156.50 L 248.50,156.00 L 248.50,155.00 L 248.00,154.50 L 247.50,154.00 L 247.50,153.00 L 247.50,152.00 L 247.00,151.50 L 246.50,151.00 L 246.50,150.00 L 246.00,149.50 L 245.50,149.00 L 245.50,148.00 L 245.00,147.50 L 244.50,147.00 L 244.50,146.00 L 244.50,145.00 L 244.00,144.50 L 243.50,144.00 L 243.50,143.00 L 243.50,142.00 L 243.50,141.00 L 243.00,140.50 L 242.50,140.00 L 242.50,139.00 L 242.00,138.50 L 241.50,138.00 L 241.50,137.00 L 241.00,136.50 L 240.50,136.00 L 240.50,135.00 L 240.00,134.50 L 239.50,134.00 L 239.50,133.00 L 239.50,132.00 L 239.00,131.50 L 238.50,131.00 L 238.50,130.00 L 238.00,129.50 L 237.50,129.00 L 237.50,128.00 L 237.00,127.50 L 236.50,127.00 L 236.50,126.00 L 236.00,125.50 L 235.50,125.00 L 235.50,124.00 L 235.50,123.00 L 235.00,122.50 L 234.50,122.00 L 234.50,121.00 L 234.00,120.50 L 233.50,120.00 L 233.50,119.00 L 233.50,118.00 L 233.50,117.00 L 233.00,116.50 L 232.50,116.00 L 232.50,115.00 L 232.00,114.50 L 231.50,114.00 L 231.50,113.00 L 231.00,112.50 L 230.50,112.00 L 230.50,111.00 L 230.50,110.00 L 230.00,109.50 L 229.50,109.00 L 229.50,108.00 L 229.00,107.50 L 228.50,107.00 L 228.50,106.00 L 228.00,105.50 L 227.50,105.00 L 227.50,104.00 L 227.00,103.50 L 226.50,103.00 L 226.50,102.00 L 226.50,101.00 L 226.00,100.50 L 225.50,100.00 L 225.50,99.00 L 225.00,98.50 L 224.50,98.00 L 224.50,97.00 L 224.00,96.50 L 223.50,96.00 L 223.50,95.00 L 223.00,94.50 L 222.50,94.00 L 222.50,93.00 L 222.50,92.00 L 222.50,91.00 L 222.50,90.00 L 222.00,89.50 L 221.50,89.00 L 221.50,88.00 L 221.00,87.50 L 220.50,87.00 L 220.50,86.00 L 220.00,85.50 L 219.50,85.00 L 219.50,84.00 L 219.00,83.50 L 218.50,83.00 L 218.50,82.00 L 218.00,81.50 L 217.50,81.00 L 217.50,80.00 L 217.50,79.00 L 217.00,78.50 L 216.50,78.00 L 216.50,77.00 L 216.00,76.50 L 215.50,76.00 L 215.50,75.00 L 215.00,74.50 L 214.50,74.00 L 214.50,73.00 L 214.00,72.50 L 213.50,72.00 L 213.50,71.00 L 213.50,70.00 L 213.00,69.50 L 212.50,69.00 L 212.50,68.00 L 212.00,67.50 L 211.50,67.00 L 211.50,66.00 L 211.50,65.00 L 211.50,64.00 L 211.00,63.50 L 210.50,63.00 L 210.50,62.00 L 210.50,61.00 L 211.00,60.50 L 212.00,60.50 L 212.50,61.00 L 213.00,61.50 L 214.00,61.50 L 214.50,62.00 L 215.00,62.50 L 216.00,62.50 L 217.00,62.50 L 217.50,63.00 L 218.00,63.50 L 219.00,63.50 L 220.00,63.50 L 221.00,63.50 L 221.50,64.00 L 222.00,64.50 L 223.00,64.50 L 224.00,64.50 L 224.50,65.00 L 225.00,65.50 L 226.00,65.50 L 227.00,65.50 L 227.50,66.00 L 228.00,66.50 L 229.00,66.50 L 230.00,66.50 L 230.50,67.00 L 231.00,67.50 L 232.00,67.50 L 233.00,67.50 L 233.50,68.00 L 234.00,68.50 L 235.00,68.50 L 236.00,68.50 L 237.00,68.50 L 238.00,68.50 L 239.00,68.50 L 239.50,69.00 L 240.00,69.50 L 241.00,69.50 L 242.00,69.50 L 243.00,69.50 L 243.50,70.00 L 244.00,70.50 L 245.00,70.50 L 245.50,71.00 L 246.00,71.50 L 247.00,71.50 L 247.50,72.00 L 247.50,73.00 L 248.00,73.50 L 248.50,74.00 L 248.50,75.00 L 248.50,76.00 L 249.00,76.50 L 249.50,77.00 L 249.50,78.00 L 250.00,78.50 L 250.50,79.00 L 250.50,80.00 L 251.00,80.50 L 251.50,81.00 L 251.50,82.00 L 252.00,82.50 L 252.50,83.00 L 252.50,84.00 L 252.50,85.00 L 253.00,85.50 L 253.50,86.00 L 253.50,87.00 L 254.00,87.50 L 254.50,88.00 L 254.50,89.00 L 255.00,89.50 L 255.50,90.00 L 255.50,91.00 L 256.00,91.50 L 256.50,92.00 L 256.50,93.00 L 256.50,94.00 L 256.50,95.00 L 257.00,95.50 L 257.50,96.00 L 257.50,97.00 L 257.50,98.00 L 258.00,98.50 L 258.50,99.00 L 258.50,100.00 L 259.00,100.50 L 259.50,101.00 L 259.50,102.00 L 260.00,102.50 L 260.50,103.00 L 260.50,104.00 L 261.00,104.50 L 261.50,105.00 L 261.50,106.00 L 261.50,107.00 L 262.00,107.50 L 262.50,108.00 L 262.50,109.00 L 263.00,109.50 L 263.50,110.00 L 263.50,111.00 L 264.00,111.50 L 264.50,112.00 L 264.50,113.00 L 265.00,113.50 L 265.50,114.00 L 265.50,115.00 L 265.50,116.00 L 266.00,116.50 L 266.50,117.00 L 266.50,118.00 L 267.00,118.50 L 267.50,119.00 L 267.50,120.00 L 267.50,121.00 L 267.50,122.00 L 268.00,122.50 L 268.50,123.00 L 268.50,124.00 L 269.00,124.50 L 269.50,125.00 L 269.50,126.00 L 269.50,127.00 L 270.00,127.50 L 270.50,128.00 L 270.50,129.00 L 271.00,129.50 L 271.50,130.00 L 271.50,131.00 L 272.00,131.50 L 272.50,132.00 L 272.50,133.00 L 273.00,133.50 L 273.50,134.00 L 273.50,135.00 L 274.00,135.50 L 274.50,136.00 L 274.50,137.00 L 274.50,138.00 L 275.00,138.50 L 275.50,139.00 L 275.50,140.00 L 276.00,140.50 L 276.50,141.00 L 276.50,142.00 L 277.00,142.50 L 277.50,143.00 L 277.50,144.00 L 277.50,145.00 L 278.00,145.50 L 278.50,146.00 L 278.50,147.00 L 278.50,148.00 L 278.50,149.00 L 279.00,149.50 L 279.50,150.00 L 280.00,150.50 L 280.50,150.00 L 280.50,149.00 L 281.00,148.50 L 281.50,148.00 L 281.50,147.00 L 282.00,146.50 L 282.50,146.00 L 282.50,145.00 L 283.00,144.50 L 283.50,144.00 L 283.50,143.00 L 284.00,142.50 L 284.50,142.00 L 284.50,141.00 L 284.50,140.00 L 285.00,139.50 L 285.50,139.00 L 285.50,138.00 L 286.00,137.50 L 286.50,137.00 L 286.50,136.00 L 286.50,135.00 L 287.00,134.50 L 287.50,134.00 L 287.50,133.00 L 287.50,132.00 L 288.00,131.50 L 288.50,131.00 L 288.50,130.00 L 289.00,129.50 L 289.50,129.00 L 289.50,128.00 L 289.50,127.00 L 290.00,126.50 L 290.50,126.00 L 290.50,125.00 L 291.00,124.50 L 291.50,124.00 L 291.50,123.00 L 292.00,122.50 L 292.50,122.00 L 292.50,121.00 L 293.00,120.50 L 293.50,120.00 L 293.50,119.00 L 293.50,118.00 L 294.00,117.50 L 294.50,117.00 L 294.50,116.00 L 295.00,115.50 L 295.50,115.00 L 295.50,114.00 L 296.00,113.50 L 296.50,113.00 L 296.50,112.00 L 297.00,111.50 L 297.50,111.00 L 297.50,110.00 L 297.50,109.00 L 298.00,108.50 L 298.50,108.00 L 299.00,107.50 L 299.50,107.00 L 299.50,106.00 L 299.50,105.00 L 299.50,104.00 L 299.50,103.00 L 300.00,102.50 L 300.50,102.00 L 300.50,101.00 L 301.00,100.50 L 301.50,100.00 L 301.50,99.00 L 302.00,98.50 L 302.50,98.00 L 302.50,97.00 L 302.50,96.00 L 303.00,95.50 L 303.50,95.00 L 303.50,94.00 L 304.00,93.50 L 304.50,93.00 L 304.50,92.00 L 305.00,91.50 L 305.50,91.00 L 305.50,90.00 L 306.00,89.50 L 306.50,89.00 L 306.50,88.00 L 307.00,87.50 L 307.50,87.00 L 307.50,86.00 L 308.00,85.50 L 308.50,85.00 L 308.50,84.00 L 308.50,83.00 L 308.50,82.00 L 309.00,81.50 L 309.50,81.00 L 309.50,80.00 L 309.50,79.00 L 310.00,78.50 L 310.50,78.00 L 310.50,77.00 L 311.00,76.50 L 311.50,76.00 L 311.50,75.00 L 312.00,74.50 L 312.50,74.00 L 312.50,73.00 L 312.50,72.00 L 313.00,71.50 L 314.00,71.50 L 314.50,71.00 L 315.00,70.50 L 316.00,70.50 L 317.00,70.50 L 317.50,70.00 L 318.00,69.50 L 319.00,69.50 L 320.00,69.50 L 320.50,69.00 L 321.00,68.50 L 322.00,68.50 L 323.00,68.50 L 324.00,68.50 L 325.00,68.50 L 326.00,68.50 L 327.00,68.50 L 327.50,68.00 L 328.00,67.50 L 329.00,67.50 L 330.00,67.50 L 330.50,67.00 L 331.00,66.50 L 332.00,66.50 L 332.50,66.00 L 333.00,65.50 L 334.00,65.50 L 335.00,65.50 L 335.50,65.00 L 336.00,64.50 L 337.00,64.50 L 338.00,64.50 L 339.00,64.50 L 339.50,64.00 L 340.00,63.50 L 341.00,63.50 L 342.00,63.50 L 342.50,63.00 L 343.00,62.50 L 344.00,62.50 L 345.00,62.50 L 345.50,62.00 L 346.00,61.50 L 347.00,61.50 L 348.00,61.50 L 348.50,61.00 L 349.00,60.50 L 349.50,61.00 L 350.00,61.50 L 350.50,62.00 L 350.50,63.00 L 350.00,63.50 L 349.50,64.00 L 349.50,65.00 L 349.00,65.50 L 348.50,66.00 L 348.50,67.00 L 348.00,67.50 L 347.50,68.00 L 347.50,69.00 L 347.00,69.50 L 346.50,70.00 L 346.50,71.00 L 346.50,72.00 L 346.00,72.50 L 345.50,73.00 L 345.50,74.00 L 345.00,74.50 L 344.50,75.00 L 344.50,76.00 L 344.00,76.50 L 343.50,77.00 L 343.50,78.00 L 343.50,79.00 L 343.50,80.00 L 343.00,80.50 L 342.50,81.00 L 342.50,82.00 L 342.00,82.50 L 341.50,83.00 L 341.50,84.00 L 341.50,85.00 L 341.00,85.50 L 340.50,86.00 L 340.50,87.00 L 340.00,87.50 L 339.50,88.00 L 339.50,89.00 L 339.00,89.50 L 338.50,90.00 L 338.50,91.00 L 338.50,92.00 L 338.00,92.50 L 337.50,93.00 L 337.50,94.00 L 337.00,94.50 L 336.50,95.00 L 336.50,96.00 L 336.00,96.50 L 335.50,97.00 L 335.50,98.00 L 335.00,98.50 L 334.50,99.00 L 334.50,100.00 L 334.50,101.00 L 334.00,101.50 L 333.50,102.00 L 333.50,103.00 L 333.50,104.00 L 333.00,104.50 L 332.50,105.00 L 332.50,106.00 L 332.50,107.00 L 332.00,107.50 L 331.50,108.00 L 331.50,109.00 L 331.00,109.50 L 330.50,110.00 L 330.50,111.00 L 330.00,111.50 L 329.50,112.00 L 329.50,113.00 L 329.50,114.00 L 329.00,114.50 L 328.50,115.00 L 328.50,116.00 L 328.00,116.50 L 327.50,117.00 L 327.50,118.00 L 327.00,118.50 L 326.50,119.00 L 326.50,120.00 L 326.00,120.50 L 325.50,121.00 L 325.50,122.00 L 325.50,123.00 L 325.00,123.50 L 324.50,124.00 L 324.00,124.50 L 323.50,125.00 L 323.50,126.00 L 323.50,127.00 L 323.00,127.50 L 322.50,128.00 L 322.50,129.00 L 322.00,129.50 L 321.50,130.00 L 321.50,131.00 L 321.50,132.00 L 321.50,133.00 L 321.50,134.00 L 321.00,134.50 L 320.50,135.00 L 320.00,135.50 L 319.50,136.00 L 319.50,137.00 L 319.00,137.50 L 318.50,138.00 L 318.50,139.00 L 318.50,140.00 L 318.00,140.50 L 317.50,141.00 L 317.50,142.00 L 317.00,142.50 L 316.50,143.00 L 316.50,144.00 L 316.50,145.00 L 316.00,145.50 L 315.50,146.00 L 315.00,146.50 L 314.50,147.00 L 314.50,148.00 L 314.50,149.00 L 314.00,149.50 L 313.50,150.00 L 313.50,151.00 L 313.00,151.50 L 312.50,152.00 L 312.50,153.00 L 312.50,154.00 L 312.00,154.50 L 311.50,155.00 L 311.50,156.00 L 311.50,157.00 L 311.00,157.50 L 310.50,158.00 L 310.50,159.00 L 310.00,159.50 L 309.50,160.00 L 309.50,161.00 L 309.50,162.00 L 309.00,162.50 L 308.50,163.00 L 308.50,164.00 L 308.50,165.00 L 308.00,165.50 L 307.50,166.00 L 307.50,167.00 L 307.00,167.50 L 306.50,168.00 L 306.00,168.50 L 305.50,169.00 L 305.50,170.00 L 305.50,171.00 L 305.00,171.50 L 304.50,172.00 L 304.50,173.00 L 304.50,174.00 L 304.00,174.50 L 303.50,175.00 L 303.50,176.00 L 303.00,176.50 L 302.50,177.00 L 302.50,178.00 L 302.00,178.50 L 301.50,179.00 L 301.50,180.00 L 301.00,180.50 L 300.50,181.00 L 300.50,182.00 L 300.50,183.00 L 300.50,184.00 L 300.00,184.50 L 299.50,185.00 L 299.50,186.00 L 299.50,187.00 L 299.00,187.50 L 298.50,188.00 L 298.50,189.00 L 298.00,189.50 L 297.50,190.00 L 297.00,190.50 L 296.50,191.00 L 296.50,192.00 L 296.50,193.00 L 296.00,193.50 Z" fill="#34359a" fill-rule="evenodd" stroke="none" /><path d="M 490.00,202.50 L 489.00,202.50 L 488.50,202.00 L 488.00,201.50 L 487.50,201.00 L 487.00,200.50 L 486.00,200.50 L 485.50,200.00 L 485.00,199.50 L 484.50,199.00 L 484.00,198.50 L 483.50,198.00 L 483.00,197.50 L 482.50,197.00 L 482.00,196.50 L 481.50,196.00 L 481.00,195.50 L 480.50,195.00 L 480.00,194.50 L 479.50,194.00 L 479.00,193.50 L 478.50,193.00 L 478.00,192.50 L 477.00,192.50 L 476.50,192.00 L 476.00,191.50 L 475.50,191.00 L 475.50,190.00 L 475.00,189.50 L 474.00,189.50 L 473.50,189.00 L 473.00,188.50 L 472.50,188.00 L 472.00,187.50 L 471.50,187.00 L 471.00,186.50 L 470.50,186.00 L 470.00,185.50 L 469.00,185.50 L 468.50,185.00 L 468.00,184.50 L 467.50,184.00 L 467.00,183.50 L 466.50,183.00 L 466.00,182.50 L 465.50,182.00 L 465.00,181.50 L 464.50,181.00 L 464.00,180.50 L 463.50,180.00 L 463.00,179.50 L 462.50,179.00 L 462.00,178.50 L 461.00,178.50 L 460.50,178.00 L 460.50,177.00 L 460.50,176.00 L 460.50,175.00 L 460.50,174.00 L 460.50,173.00 L 460.50,172.00 L 460.50,171.00 L 460.50,170.00 L 460.50,169.00 L 460.50,168.00 L 460.50,167.00 L 460.50,166.00 L 460.50,165.00 L 460.50,164.00 L 460.50,163.00 L 460.50,162.00 L 460.50,161.00 L 460.50,160.00 L 460.50,159.00 L 460.50,158.00 L 460.50,157.00 L 460.50,156.00 L 460.50,155.00 L 460.50,154.00 L 460.50,153.00 L 460.50,152.00 L 460.50,151.00 L 460.50,150.00 L 460.50,149.00 L 460.50,148.00 L 460.50,147.00 L 460.50,146.00 L 460.50,145.00 L 460.50,144.00 L 460.50,143.00 L 460.50,142.00 L 460.50,141.00 L 460.50,140.00 L 460.50,139.00 L 460.50,138.00 L 460.50,137.00 L 460.50,136.00 L 460.50,135.00 L 460.50,134.00 L 460.50,133.00 L 460.50,132.00 L 460.50,131.00 L 460.50,130.00 L 460.50,129.00 L 460.50,128.00 L 460.50,127.00 L 460.50,126.00 L 460.50,125.00 L 460.50,124.00 L 460.50,123.00 L 460.50,122.00 L 460.50,121.00 L 460.50,120.00 L 460.50,119.00 L 460.50,118.00 L 460.50,117.00 L 460.50,116.00 L 460.50,115.00 L 460.50,114.00 L 460.50,113.00 L 460.50,112.00 L 460.50,111.00 L 460.50,110.00 L 460.50,109.00 L 460.50,108.00 L 460.50,107.00 L 460.50,106.00 L 460.50,105.00 L 460.50,104.00 L 460.50,103.00 L 460.50,102.00 L 460.50,101.00 L 460.50,100.00 L 460.50,99.00 L 460.50,98.00 L 460.50,97.00 L 460.00,96.50 L 459.50,97.00 L 459.00,97.50 L 458.50,98.00 L 458.00,98.50 L 457.50,99.00 L 457.00,99.50 L 456.50,100.00 L 456.00,100.50 L 455.50,101.00 L 455.00,101.50 L 454.50,102.00 L 454.00,102.50 L 453.50,103.00 L 453.00,103.50 L 452.50,104.00 L 452.00,104.50 L 451.50,105.00 L 451.00,105.50 L 450.50,106.00 L 450.00,106.50 L 449.50,107.00 L 449.00,107.50 L 448.50,108.00 L 448.00,108.50 L 447.50,109.00 L 447.00,109.50 L 446.50,110.00 L 446.00,110.50 L 445.50,111.00 L 445.00,111.50 L 444.50,112.00 L 444.00,112.50 L 443.00,112.50 L 442.00,112.50 L 441.00,112.50 L 440.50,112.00 L 440.00,111.50 L 439.00,111.50 L 438.00,111.50 L 437.00,111.50 L 436.50,111.00 L 436.00,110.50 L 435.00,110.50 L 434.00,110.50 L 433.50,110.00 L 433.00,109.50 L 432.00,109.50 L 431.00,109.50 L 430.50,109.00 L 430.00,108.50 L 429.00,108.50 L 428.50,108.00 L 428.00,107.50 L 427.00,107.50 L 426.00,107.50 L 425.00,107.50 L 424.00,107.50 L 423.00,107.50 L 422.00,107.50 L 421.00,107.50 L 420.50,108.00 L 420.00,108.50 L 419.00,108.50 L 418.00,108.50 L 417.50,109.00 L 417.00,109.50 L 416.00,109.50 L 415.50,110.00 L 415.00,110.50 L 414.00,110.50 L 413.00,110.50 L 412.50,111.00 L 412.00,111.50 L 411.00,111.50 L 410.00,111.50 L 409.00,111.50 L 408.50,112.00 L 408.00,112.50 L 407.00,112.50 L 406.50,112.00 L 406.00,111.50 L 405.00,111.50 L 404.50,111.00 L 404.00,110.50 L 403.50,110.00 L 403.00,109.50 L 402.50,109.00 L 402.50,108.00 L 402.00,107.50 L 401.00,107.50 L 400.50,107.00 L 400.00,106.50 L 399.50,106.00 L 399.00,105.50 L 398.50,105.00 L 398.50,104.00 L 398.00,103.50 L 397.50,103.00 L 397.00,102.50 L 396.00,102.50 L 395.50,102.00 L 395.00,101.50 L 394.50,101.00 L 394.50,100.00 L 394.00,99.50 L 393.50,99.00 L 393.00,98.50 L 392.00,98.50 L 391.50,98.00 L 391.00,97.50 L 390.50,97.00 L 390.00,96.50 L 389.50,97.00 L 389.50,98.00 L 389.50,99.00 L 389.50,100.00 L 389.50,101.00 L 389.50,102.00 L 389.50,103.00 L 389.50,104.00 L 389.50,105.00 L 389.50,106.00 L 389.50,107.00 L 389.50,108.00 L 389.50,109.00 L 389.50,110.00 L 389.50,111.00 L 389.50,112.00 L 389.50,113.00 L 389.50,114.00 L 389.50,115.00 L 389.50,116.00 L 389.50,117.00 L 389.50,118.00 L 389.50,119.00 L 389.50,120.00 L 389.50,121.00 L 389.50,122.00 L 389.50,123.00 L 389.50,124.00 L 389.50,125.00 L 389.50,126.00 L 389.50,127.00 L 389.50,128.00 L 389.50,129.00 L 389.50,130.00 L 389.50,131.00 L 389.50,132.00 L 389.50,133.00 L 389.50,134.00 L 389.50,135.00 L 389.50,136.00 L 389.50,137.00 L 389.50,138.00 L 389.50,139.00 L 389.50,140.00 L 389.50,141.00 L 389.50,142.00 L 389.50,143.00 L 389.50,144.00 L 389.50,145.00 L 389.50,146.00 L 389.50,147.00 L 389.50,148.00 L 389.50,149.00 L 389.50,150.00 L 389.50,151.00 L 389.50,152.00 L 389.50,153.00 L 389.50,154.00 L 389.50,155.00 L 389.50,156.00 L 389.50,157.00 L 389.50,158.00 L 389.50,159.00 L 389.50,160.00 L 389.50,161.00 L 389.50,162.00 L 389.50,163.00 L 389.50,164.00 L 389.50,165.00 L 389.50,166.00 L 389.50,167.00 L 389.50,168.00 L 389.50,169.00 L 389.50,170.00 L 389.50,171.00 L 389.50,172.00 L 389.50,173.00 L 389.50,174.00 L 389.50,175.00 L 389.50,176.00 L 389.50,177.00 L 389.00,177.50 L 388.50,178.00 L 388.00,178.50 L 387.50,179.00 L 387.00,179.50 L 386.00,179.50 L 385.50,180.00 L 385.00,180.50 L 384.50,181.00 L 384.00,181.50 L 383.50,182.00 L 383.00,182.50 L 382.50,183.00 L 382.00,183.50 L 381.50,184.00 L 381.00,184.50 L 380.50,185.00 L 380.00,185.50 L 379.00,185.50 L 378.50,186.00 L 378.00,186.50 L 377.50,187.00 L 377.00,187.50 L 376.50,188.00 L 376.50,189.00 L 376.00,189.50 L 375.00,189.50 L 374.00,189.50 L 373.50,190.00 L 373.00,190.50 L 372.50,191.00 L 372.50,192.00 L 372.00,192.50 L 371.00,192.50 L 370.50,193.00 L 370.00,193.50 L 369.50,194.00 L 369.00,194.50 L 368.50,195.00 L 368.00,195.50 L 367.50,196.00 L 367.00,196.50 L 366.50,197.00 L 366.00,197.50 L 365.50,198.00 L 365.00,198.50 L 364.50,199.00 L 364.00,199.50 L 363.50,200.00 L 363.00,200.50 L 362.00,200.50 L 361.50,201.00 L 361.00,201.50 L 360.50,202.00 L 360.00,202.50 L 359.50,202.00 L 359.50,201.00 L 359.50,200.00 L 359.50,199.00 L 359.50,198.00 L 359.50,197.00 L 359.50,196.00 L 359.50,195.00 L 359.50,194.00 L 359.50,193.00 L 359.50,192.00 L 359.50,191.00 L 359.50,190.00 L 359.50,189.00 L 359.50,188.00 L 359.50,187.00 L 359.50,186.00 L 359.50,185.00 L 359.50,184.00 L 359.50,183.00 L 359.50,182.00 L 359.50,181.00 L 359.50,180.00 L 359.50,179.00 L 359.50,178.00 L 359.50,177.00 L 359.50,176.00 L 359.50,175.00 L 359.50,174.00 L 359.50,173.00 L 359.50,172.00 L 359.50,171.00 L 359.50,170.00 L 359.50,169.00 L 359.50,168.00 L 359.50,167.00 L 359.50,166.00 L 359.50,165.00 L 359.50,164.00 L 359.50,163.00 L 359.50,162.00 L 359.50,161.00 L 359.50,160.00 L 359.50,159.00 L 359.50,158.00 L 359.50,157.00 L 359.50,156.00 L 359.50,155.00 L 359.50,154.00 L 359.50,153.00 L 359.50,152.00 L 359.50,151.00 L 359.50,150.00 L 359.50,149.00 L 359.50,148.00 L 359.50,147.00 L 359.50,146.00 L 359.50,145.00 L 359.50,144.00 L 359.50,143.00 L 359.50,142.00 L 359.50,141.00 L 359.50,140.00 L 359.50,139.00 L 359.50,138.00 L 359.50,137.00 L 359.50,136.00 L 359.50,135.00 L 359.50,134.00 L 359.50,133.00 L 359.50,132.00 L 359.50,131.00 L 359.50,130.00 L 359.50,129.00 L 359.50,128.00 L 359.50,127.00 L 359.50,126.00 L 359.50,125.00 L 359.50,124.00 L 359.50,123.00 L 359.50,122.00 L 359.50,121.00 L 359.50,120.00 L 359.50,119.00 L 359.50,118.00 L 359.50,117.00 L 359.50,116.00 L 359.50,115.00 L 359.50,114.00 L 359.50,113.00 L 359.50,112.00 L 359.50,111.00 L 359.50,110.00 L 359.50,109.00 L 359.50,108.00 L 359.50,107.00 L 359.50,106.00 L 359.50,105.00 L 359.50,104.00 L 359.50,103.00 L 359.50,102.00 L 359.50,101.00 L 359.50,100.00 L 359.50,99.00 L 359.50,98.00 L 359.50,97.00 L 359.50,96.00 L 359.50,95.00 L 359.50,94.00 L 359.50,93.00 L 359.50,92.00 L 359.50,91.00 L 359.50,90.00 L 359.50,89.00 L 359.50,88.00 L 359.50,87.00 L 359.50,86.00 L 359.50,85.00 L 359.50,84.00 L 359.50,83.00 L 359.50,82.00 L 359.50,81.00 L 359.50,80.00 L 359.50,79.00 L 359.50,78.00 L 359.50,77.00 L 359.50,76.00 L 359.50,75.00 L 359.50,74.00 L 359.50,73.00 L 359.50,72.00 L 359.50,71.00 L 359.50,70.00 L 359.50,69.00 L 359.50,68.00 L 359.50,67.00 L 359.50,66.00 L 359.50,65.00 L 359.50,64.00 L 360.00,63.50 L 361.00,63.50 L 362.00,63.50 L 363.00,63.50 L 364.00,63.50 L 365.00,63.50 L 366.00,63.50 L 367.00,63.50 L 368.00,63.50 L 369.00,63.50 L 370.00,63.50 L 371.00,63.50 L 372.00,63.50 L 373.00,63.50 L 374.00,63.50 L 375.00,63.50 L 376.00,63.50 L 377.00,63.50 L 378.00,63.50 L 379.00,63.50 L 380.00,63.50 L 381.00,63.50 L 382.00,63.50 L 383.00,63.50 L 384.00,63.50 L 385.00,63.50 L 386.00,63.50 L 387.00,63.50 L 388.00,63.50 L 389.00,63.50 L 389.50,64.00 L 390.00,64.50 L 390.50,65.00 L 391.00,65.50 L 391.50,66.00 L 392.00,66.50 L 392.50,67.00 L 393.00,67.50 L 393.50,68.00 L 394.00,68.50 L 394.50,69.00 L 395.00,69.50 L 396.00,69.50 L 396.50,70.00 L 397.00,70.50 L 397.50,71.00 L 398.00,71.50 L 398.50,72.00 L 398.50,73.00 L 399.00,73.50 L 399.50,74.00 L 400.00,74.50 L 400.50,75.00 L 401.00,75.50 L 401.50,76.00 L 402.00,76.50 L 402.50,77.00 L 403.00,77.50 L 403.50,78.00 L 404.00,78.50 L 404.50,79.00 L 405.00,79.50 L 405.50,80.00 L 406.00,80.50 L 406.50,81.00 L 407.00,81.50 L 408.00,81.50 L 408.50,82.00 L 409.00,82.50 L 409.50,83.00 L 409.50,84.00 L 410.00,84.50 L 410.50,85.00 L 411.00,85.50 L 411.50,86.00 L 412.00,86.50 L 412.50,87.00 L 413.00,87.50 L 413.50,88.00 L 414.00,88.50 L 414.50,89.00 L 415.00,89.50 L 415.50,90.00 L 416.00,90.50 L 417.00,90.50 L 417.50,91.00 L 418.00,91.50 L 418.50,92.00 L 419.00,92.50 L 419.50,93.00 L 419.50,94.00 L 420.00,94.50 L 420.50,95.00 L 421.00,95.50 L 421.50,96.00 L 422.00,96.50 L 422.50,97.00 L 423.00,97.50 L 423.50,98.00 L 424.00,98.50 L 424.50,99.00 L 425.00,99.50 L 425.50,99.00 L 426.00,98.50 L 426.50,98.00 L 427.00,97.50 L 427.50,97.00 L 428.00,96.50 L 428.50,96.00 L 429.00,95.50 L 429.50,95.00 L 429.50,94.00 L 430.00,93.50 L 430.50,93.00 L 431.00,92.50 L 431.50,92.00 L 432.00,91.50 L 432.50,91.00 L 433.00,90.50 L 434.00,90.50 L 434.50,90.00 L 435.00,89.50 L 435.50,89.00 L 436.00,88.50 L 436.50,88.00 L 437.00,87.50 L 437.50,87.00 L 438.00,86.50 L 438.50,86.00 L 439.00,85.50 L 439.50,85.00 L 440.00,84.50 L 440.50,84.00 L 440.50,83.00 L 441.00,82.50 L 441.50,82.00 L 442.00,81.50 L 442.50,81.00 L 443.00,80.50 L 444.00,80.50 L 444.50,80.00 L 445.00,79.50 L 445.50,79.00 L 446.00,78.50 L 446.50,78.00 L 447.00,77.50 L 447.50,77.00 L 448.00,76.50 L 448.50,76.00 L 449.00,75.50 L 449.50,75.00 L 450.00,74.50 L 450.50,74.00 L 451.00,73.50 L 451.50,73.00 L 451.50,72.00 L 452.00,71.50 L 452.50,71.00 L 453.00,70.50 L 453.50,70.00 L 454.00,69.50 L 454.50,69.00 L 455.00,68.50 L 456.00,68.50 L 456.50,68.00 L 457.00,67.50 L 457.50,67.00 L 458.00,66.50 L 458.50,66.00 L 459.00,65.50 L 459.50,65.00 L 460.00,64.50 L 461.00,64.50 L 462.00,64.50 L 463.00,64.50 L 464.00,64.50 L 465.00,64.50 L 466.00,64.50 L 467.00,64.50 L 468.00,64.50 L 469.00,64.50 L 470.00,64.50 L 471.00,64.50 L 472.00,64.50 L 473.00,64.50 L 474.00,64.50 L 475.00,64.50 L 476.00,64.50 L 477.00,64.50 L 478.00,64.50 L 479.00,64.50 L 480.00,64.50 L 481.00,64.50 L 482.00,64.50 L 483.00,64.50 L 484.00,64.50 L 485.00,64.50 L 486.00,64.50 L 487.00,64.50 L 488.00,64.50 L 489.00,64.50 L 490.00,64.50 L 490.50,65.00 L 490.50,66.00 L 490.50,67.00 L 490.50,68.00 L 490.50,69.00 L 490.50,70.00 L 490.50,71.00 L 490.50,72.00 L 490.50,73.00 L 490.50,74.00 L 490.50,75.00 L 490.50,76.00 L 490.50,77.00 L 490.50,78.00 L 490.50,79.00 L 490.50,80.00 L 490.50,81.00 L 490.50,82.00 L 490.50,83.00 L 490.50,84.00 L 490.50,85.00 L 490.50,86.00 L 490.50,87.00 L 490.50,88.00 L 490.50,89.00 L 490.50,90.00 L 490.50,91.00 L 490.50,92.00 L 490.50,93.00 L 490.50,94.00 L 490.50,95.00 L 490.50,96.00 L 490.50,97.00 L 490.50,98.00 L 490.50,99.00 L 490.50,100.00 L 490.50,101.00 L 490.50,102.00 L 490.50,103.00 L 490.50,104.00 L 490.50,105.00 L 490.50,106.00 L 490.50,107.00 L 490.50,108.00 L 490.50,109.00 L 490.50,110.00 L 490.50,111.00 L 490.50,112.00 L 490.50,113.00 L 490.50,114.00 L 490.50,115.00 L 490.50,116.00 L 490.50,117.00 L 490.50,118.00 L 490.50,119.00 L 490.50,120.00 L 490.50,121.00 L 490.50,122.00 L 490.50,123.00 L 490.50,124.00 L 490.50,125.00 L 490.50,126.00 L 490.50,127.00 L 490.50,128.00 L 490.50,129.00 L 490.50,130.00 L 490.50,131.00 L 490.50,132.00 L 490.50,133.00 L 490.50,134.00 L 490.50,135.00 L 490.50,136.00 L 490.50,137.00 L 490.50,138.00 L 490.50,139.00 L 490.50,140.00 L 490.50,141.00 L 490.50,142.00 L 490.50,143.00 L 490.50,144.00 L 490.50,145.00 L 490.50,146.00 L 490.50,147.00 L 490.50,148.00 L 490.50,149.00 L 490.50,150.00 L 490.50,151.00 L 490.50,152.00 L 490.50,153.00 L 490.50,154.00 L 490.50,155.00 L 490.50,156.00 L 490.50,157.00 L 490.50,158.00 L 490.50,159.00 L 490.50,160.00 L 490.50,161.00 L 490.50,162.00 L 490.50,163.00 L 490.50,164.00 L 490.50,165.00 L 490.50,166.00 L 490.50,167.00 L 490.50,168.00 L 490.50,169.00 L 490.50,170.00 L 490.50,171.00 L 490.50,172.00 L 490.50,173.00 L 490.50,174.00 L 490.50,175.00 L 490.50,176.00 L 490.50,177.00 L 490.50,178.00 L 490.50,179.00 L 490.50,180.00 L 490.50,181.00 L 490.50,182.00 L 490.50,183.00 L 490.50,184.00 L 490.50,185.00 L 490.50,186.00 L 490.50,187.00 L 490.50,188.00 L 490.50,189.00 L 490.50,190.00 L 490.50,191.00 L 490.50,192.00 L 490.50,193.00 L 490.50,194.00 L 490.50,195.00 L 490.50,196.00 L 490.50,197.00 L 490.50,198.00 L 490.50,199.00 L 490.50,200.00 L 490.50,201.00 L 490.50,202.00 L 490.00,202.50 Z" fill="#34359a" fill-rule="evenodd" stroke="none" /><path d="M 156.00,200.50 L 155.00,200.50 L 154.00,200.50 L 153.00,200.50 L 152.00,200.50 L 151.00,200.50 L 150.00,200.50 L 149.00,200.50 L 148.00,200.50 L 147.00,200.50 L 146.00,200.50 L 145.00,200.50 L 144.00,200.50 L 143.00,200.50 L 142.00,200.50 L 141.00,200.50 L 140.00,200.50 L 139.00,200.50 L 138.00,200.50 L 137.00,200.50 L 136.00,200.50 L 135.00,200.50 L 134.00,200.50 L 133.00,200.50 L 132.00,200.50 L 131.00,200.50 L 130.00,200.50 L 129.00,200.50 L 128.00,200.50 L 127.00,200.50 L 126.00,200.50 L 125.00,200.50 L 124.50,200.00 L 124.00,199.50 L 123.50,199.00 L 123.50,198.00 L 123.50,197.00 L 123.50,196.00 L 123.50,195.00 L 123.50,194.00 L 123.50,193.00 L 123.50,192.00 L 123.50,191.00 L 123.50,190.00 L 123.50,189.00 L 123.50,188.00 L 123.50,187.00 L 123.50,186.00 L 123.50,185.00 L 123.50,184.00 L 123.50,183.00 L 123.50,182.00 L 123.50,181.00 L 123.50,180.00 L 123.50,179.00 L 123.50,178.00 L 123.50,177.00 L 123.50,176.00 L 123.50,175.00 L 123.50,174.00 L 123.50,173.00 L 123.50,172.00 L 123.50,171.00 L 123.50,170.00 L 123.50,169.00 L 123.50,168.00 L 123.50,167.00 L 123.50,166.00 L 123.50,165.00 L 123.50,164.00 L 123.50,163.00 L 123.50,162.00 L 123.50,161.00 L 123.50,160.00 L 123.50,159.00 L 123.50,158.00 L 123.50,157.00 L 123.50,156.00 L 123.50,155.00 L 123.50,154.00 L 123.50,153.00 L 123.50,152.00 L 123.50,151.00 L 123.50,150.00 L 123.50,149.00 L 123.50,148.00 L 123.50,147.00 L 123.50,146.00 L 123.50,145.00 L 123.50,144.00 L 123.50,143.00 L 123.50,142.00 L 123.50,141.00 L 123.50,140.00 L 123.50,139.00 L 123.50,138.00 L 123.50,137.00 L 123.50,136.00 L 123.50,135.00 L 123.50,134.00 L 123.50,133.00 L 123.50,132.00 L 123.50,131.00 L 123.50,130.00 L 123.50,129.00 L 123.50,128.00 L 123.50,127.00 L 123.50,126.00 L 123.50,125.00 L 123.50,124.00 L 123.50,123.00 L 123.50,122.00 L 123.50,121.00 L 123.50,120.00 L 123.50,119.00 L 123.50,118.00 L 123.50,117.00 L 123.50,116.00 L 123.50,115.00 L 123.50,114.00 L 123.50,113.00 L 123.50,112.00 L 123.50,111.00 L 123.50,110.00 L 123.50,109.00 L 124.00,108.50 L 124.50,108.00 L 125.00,107.50 L 125.50,107.00 L 126.00,106.50 L 127.00,106.50 L 127.50,106.00 L 128.00,105.50 L 128.50,105.00 L 129.00,104.50 L 130.00,104.50 L 130.50,104.00 L 131.00,103.50 L 132.00,103.50 L 132.50,103.00 L 133.00,102.50 L 133.50,102.00 L 134.00,101.50 L 135.00,101.50 L 135.50,101.00 L 136.00,100.50 L 137.00,100.50 L 137.50,100.00 L 138.00,99.50 L 138.50,99.00 L 139.00,98.50 L 140.00,98.50 L 140.50,98.00 L 141.00,97.50 L 141.50,97.00 L 142.00,96.50 L 143.00,96.50 L 143.50,96.00 L 144.00,95.50 L 144.50,95.00 L 145.00,94.50 L 146.00,94.50 L 146.50,94.00 L 147.00,93.50 L 147.50,93.00 L 148.00,92.50 L 149.00,92.50 L 149.50,92.00 L 150.00,91.50 L 150.50,91.00 L 151.00,90.50 L 152.00,90.50 L 153.00,90.50 L 153.50,90.00 L 154.00,89.50 L 155.00,89.50 L 155.50,89.00 L 156.00,88.50 L 157.00,88.50 L 157.50,89.00 L 157.50,90.00 L 157.50,91.00 L 157.50,92.00 L 157.50,93.00 L 157.50,94.00 L 157.50,95.00 L 157.50,96.00 L 157.50,97.00 L 157.50,98.00 L 157.50,99.00 L 157.50,100.00 L 157.50,101.00 L 157.50,102.00 L 157.50,103.00 L 157.50,104.00 L 157.50,105.00 L 157.50,106.00 L 157.50,107.00 L 157.50,108.00 L 157.50,109.00 L 157.50,110.00 L 157.50,111.00 L 157.50,112.00 L 157.50,113.00 L 157.50,114.00 L 157.50,115.00 L 157.50,116.00 L 157.50,117.00 L 157.50,118.00 L 157.50,119.00 L 157.50,120.00 L 157.50,121.00 L 157.50,122.00 L 157.50,123.00 L 157.50,124.00 L 157.50,125.00 L 157.50,126.00 L 157.50,127.00 L 157.50,128.00 L 157.50,129.00 L 157.50,130.00 L 157.50,131.00 L 157.50,132.00 L 157.50,133.00 L 157.50,134.00 L 157.50,135.00 L 157.50,136.00 L 157.50,137.00 L 157.50,138.00 L 157.50,139.00 L 157.50,140.00 L 157.50,141.00 L 157.50,142.00 L 157.50,143.00 L 157.50,144.00 L 157.50,145.00 L 157.50,146.00 L 157.50,147.00 L 157.50,148.00 L 157.50,149.00 L 157.50,150.00 L 157.50,151.00 L 157.50,152.00 L 157.50,153.00 L 157.50,154.00 L 157.50,155.00 L 157.50,156.00 L 157.50,157.00 L 157.50,158.00 L 157.50,159.00 L 157.50,160.00 L 157.50,161.00 L 157.50,162.00 L 157.50,163.00 L 157.50,164.00 L 157.50,165.00 L 157.50,166.00 L 157.50,167.00 L 157.50,168.00 L 157.50,169.00 L 157.50,170.00 L 157.50,171.00 L 157.50,172.00 L 157.50,173.00 L 157.50,174.00 L 157.50,175.00 L 157.50,176.00 L 157.50,177.00 L 157.50,178.00 L 157.50,179.00 L 157.50,180.00 L 157.50,181.00 L 157.50,182.00 L 157.50,183.00 L 157.50,184.00 L 157.50,185.00 L 157.50,186.00 L 157.50,187.00 L 157.50,188.00 L 157.50,189.00 L 157.50,190.00 L 157.50,191.00 L 157.50,192.00 L 157.50,193.00 L 157.50,194.00 L 157.50,195.00 L 157.50,196.00 L 157.50,197.00 L 157.50,198.00 L 157.50,199.00 L 157.00,199.50 L 156.50,200.00 L 156.00,200.50 Z" fill="#34359a" fill-rule="evenodd" stroke="none" /><path d="M 155.00,275.50 L 154.00,275.50 L 153.00,275.50 L 152.00,275.50 L 151.00,275.50 L 150.00,275.50 L 149.00,275.50 L 148.00,275.50 L 147.00,275.50 L 146.00,275.50 L 145.00,275.50 L 144.00,275.50 L 143.00,275.50 L 142.00,275.50 L 141.00,275.50 L 140.00,275.50 L 139.00,275.50 L 138.50,275.00 L 138.50,274.00 L 138.50,273.00 L 139.00,272.50 L 139.50,272.00 L 140.00,271.50 L 141.00,271.50 L 141.50,271.00 L 142.00,270.50 L 142.50,270.00 L 142.50,269.00 L 142.50,268.00 L 142.50,267.00 L 142.50,266.00 L 142.50,265.00 L 142.50,264.00 L 142.50,263.00 L 142.50,262.00 L 142.50,261.00 L 142.50,260.00 L 142.50,259.00 L 142.50,258.00 L 142.50,257.00 L 142.50,256.00 L 142.50,255.00 L 142.50,254.00 L 142.50,253.00 L 142.50,252.00 L 142.50,251.00 L 142.50,250.00 L 142.50,249.00 L 142.50,248.00 L 142.50,247.00 L 142.50,246.00 L 142.50,245.00 L 142.50,244.00 L 142.50,243.00 L 142.50,242.00 L 142.50,241.00 L 142.50,240.00 L 142.50,239.00 L 142.50,238.00 L 142.50,237.00 L 142.50,236.00 L 142.50,235.00 L 142.50,234.00 L 142.50,233.00 L 142.50,232.00 L 142.50,231.00 L 142.50,230.00 L 142.50,229.00 L 142.50,228.00 L 142.50,227.00 L 142.50,226.00 L 142.50,225.00 L 142.50,224.00 L 142.50,223.00 L 142.00,222.50 L 141.50,222.00 L 141.00,221.50 L 140.50,221.00 L 140.00,220.50 L 139.00,220.50 L 138.00,220.50 L 137.50,220.00 L 137.50,219.00 L 137.50,218.00 L 138.00,217.50 L 138.50,217.00 L 139.00,216.50 L 140.00,216.50 L 141.00,216.50 L 142.00,216.50 L 143.00,216.50 L 144.00,216.50 L 145.00,216.50 L 146.00,216.50 L 147.00,216.50 L 148.00,216.50 L 149.00,216.50 L 150.00,216.50 L 150.50,217.00 L 150.50,218.00 L 150.50,219.00 L 150.50,220.00 L 150.50,221.00 L 150.50,222.00 L 150.50,223.00 L 150.50,224.00 L 150.50,225.00 L 150.50,226.00 L 150.50,227.00 L 150.50,228.00 L 150.50,229.00 L 150.50,230.00 L 150.50,231.00 L 150.50,232.00 L 150.50,233.00 L 150.50,234.00 L 150.50,235.00 L 150.50,236.00 L 150.50,237.00 L 150.50,238.00 L 150.50,239.00 L 150.50,240.00 L 150.50,241.00 L 150.50,242.00 L 150.50,243.00 L 150.50,244.00 L 150.50,245.00 L 150.50,246.00 L 150.50,247.00 L 150.50,248.00 L 150.50,249.00 L 150.50,250.00 L 150.50,251.00 L 150.50,252.00 L 150.50,253.00 L 150.50,254.00 L 150.50,255.00 L 150.50,256.00 L 150.50,257.00 L 150.50,258.00 L 150.50,259.00 L 150.50,260.00 L 150.50,261.00 L 150.50,262.00 L 150.50,263.00 L 150.50,264.00 L 150.50,265.00 L 150.50,266.00 L 150.50,267.00 L 150.50,268.00 L 150.50,269.00 L 151.00,269.50 L 151.50,270.00 L 151.50,271.00 L 152.00,271.50 L 153.00,271.50 L 153.50,272.00 L 154.00,272.50 L 155.00,272.50 L 155.50,273.00 L 155.50,274.00 L 155.50,275.00 L 155.00,275.50 Z" fill="#34359a" fill-rule="evenodd" stroke="none" /><path d="M 230.00,237.50 L 229.00,237.50 L 228.50,237.00 L 228.00,236.50 L 227.00,236.50 L 226.50,236.00 L 226.50,235.00 L 226.50,234.00 L 226.50,233.00 L 227.00,232.50 L 227.50,232.00 L 228.00,231.50 L 228.50,231.00 L 228.50,230.00 L 229.00,229.50 L 229.50,229.00 L 229.50,228.00 L 229.50,227.00 L 230.00,226.50 L 230.50,226.00 L 230.50,225.00 L 230.50,224.00 L 230.50,223.00 L 230.50,222.00 L 230.00,221.50 L 229.50,221.00 L 229.50,220.00 L 229.50,219.00 L 229.50,218.00 L 229.50,217.00 L 230.00,216.50 L 231.00,216.50 L 232.00,216.50 L 233.00,216.50 L 234.00,216.50 L 235.00,216.50 L 236.00,216.50 L 237.00,216.50 L 237.50,217.00 L 237.50,218.00 L 237.50,219.00 L 238.00,219.50 L 238.50,220.00 L 238.50,221.00 L 238.50,222.00 L 238.50,223.00 L 238.50,224.00 L 238.50,225.00 L 238.50,226.00 L 238.00,226.50 L 237.50,227.00 L 237.50,228.00 L 237.00,228.50 L 236.50,229.00 L 236.50,230.00 L 236.00,230.50 L 235.50,231.00 L 235.50,232.00 L 235.00,232.50 L 234.50,233.00 L 234.00,233.50 L 233.50,234.00 L 233.00,234.50 L 232.50,235.00 L 232.00,235.50 L 231.50,236.00 L 231.00,236.50 L 230.50,237.00 L 230.00,237.50 Z" fill="#34359a" fill-rule="evenodd" stroke="none" /><path d="M 328.00,275.50 L 327.00,275.50 L 326.00,275.50 L 325.00,275.50 L 324.00,275.50 L 323.00,275.50 L 322.00,275.50 L 321.00,275.50 L 320.00,275.50 L 319.00,275.50 L 318.00,275.50 L 317.00,275.50 L 316.00,275.50 L 315.00,275.50 L 314.00,275.50 L 313.00,275.50 L 312.00,275.50 L 311.00,275.50 L 310.00,275.50 L 309.00,275.50 L 308.00,275.50 L 307.00,275.50 L 306.00,275.50 L 305.00,275.50 L 304.00,275.50 L 303.00,275.50 L 302.00,275.50 L 301.00,275.50 L 300.00,275.50 L 299.00,275.50 L 298.50,275.00 L 298.50,274.00 L 298.50,273.00 L 299.00,272.50 L 299.50,272.00 L 300.00,271.50 L 301.00,271.50 L 301.50,271.00 L 301.50,270.00 L 302.00,269.50 L 302.50,269.00 L 302.50,268.00 L 302.50,267.00 L 302.50,266.00 L 302.50,265.00 L 302.50,264.00 L 302.50,263.00 L 302.50,262.00 L 302.50,261.00 L 302.50,260.00 L 302.50,259.00 L 302.50,258.00 L 302.50,257.00 L 302.50,256.00 L 302.50,255.00 L 302.50,254.00 L 302.50,253.00 L 302.50,252.00 L 302.50,251.00 L 302.50,250.00 L 302.50,249.00 L 302.50,248.00 L 302.50,247.00 L 302.50,246.00 L 302.50,245.00 L 302.50,244.00 L 302.50,243.00 L 302.50,242.00 L 302.50,241.00 L 302.50,240.00 L 302.50,239.00 L 302.50,238.00 L 302.50,237.00 L 302.50,236.00 L 302.50,235.00 L 302.50,234.00 L 302.50,233.00 L 302.50,232.00 L 302.50,231.00 L 302.50,230.00 L 302.50,229.00 L 302.50,228.00 L 302.50,227.00 L 302.50,226.00 L 302.00,225.50 L 301.50,225.00 L 301.50,224.00 L 301.00,223.50 L 300.00,223.50 L 299.50,223.00 L 299.00,222.50 L 298.50,222.00 L 298.50,221.00 L 298.50,220.00 L 299.00,219.50 L 300.00,219.50 L 301.00,219.50 L 302.00,219.50 L 303.00,219.50 L 304.00,219.50 L 305.00,219.50 L 306.00,219.50 L 307.00,219.50 L 308.00,219.50 L 309.00,219.50 L 310.00,219.50 L 311.00,219.50 L 312.00,219.50 L 313.00,219.50 L 314.00,219.50 L 315.00,219.50 L 316.00,219.50 L 317.00,219.50 L 318.00,219.50 L 319.00,219.50 L 320.00,219.50 L 321.00,219.50 L 322.00,219.50 L 323.00,219.50 L 324.00,219.50 L 325.00,219.50 L 326.00,219.50 L 327.00,219.50 L 328.00,219.50 L 328.50,220.00 L 329.00,220.50 L 330.00,220.50 L 331.00,220.50 L 332.00,220.50 L 332.50,221.00 L 333.00,221.50 L 333.50,222.00 L 334.00,222.50 L 334.50,223.00 L 335.00,223.50 L 335.50,224.00 L 336.00,224.50 L 336.50,225.00 L 337.00,225.50 L 337.50,226.00 L 337.50,227.00 L 337.50,228.00 L 338.00,228.50 L 338.50,229.00 L 338.50,230.00 L 338.50,231.00 L 338.50,232.00 L 338.50,233.00 L 338.50,234.00 L 338.50,235.00 L 338.50,236.00 L 338.00,236.50 L 337.50,237.00 L 337.50,238.00 L 337.00,238.50 L 336.50,239.00 L 336.50,240.00 L 336.00,240.50 L 335.50,241.00 L 335.00,241.50 L 334.50,242.00 L 334.00,242.50 L 333.50,243.00 L 333.00,243.50 L 332.50,244.00 L 332.00,244.50 L 331.00,244.50 L 330.50,245.00 L 330.00,245.50 L 329.50,246.00 L 330.00,246.50 L 331.00,246.50 L 331.50,247.00 L 332.00,247.50 L 333.00,247.50 L 333.50,248.00 L 333.50,249.00 L 334.00,249.50 L 334.50,250.00 L 335.00,250.50 L 335.50,251.00 L 336.00,251.50 L 336.50,252.00 L 337.00,252.50 L 337.50,253.00 L 338.00,253.50 L 338.50,254.00 L 338.50,255.00 L 338.50,256.00 L 338.50,257.00 L 338.50,258.00 L 338.50,259.00 L 338.50,260.00 L 338.50,261.00 L 338.50,262.00 L 338.50,263.00 L 338.50,264.00 L 338.50,265.00 L 338.50,266.00 L 338.00,266.50 L 337.50,267.00 L 337.50,268.00 L 337.00,268.50 L 336.50,269.00 L 336.00,269.50 L 335.50,270.00 L 335.00,270.50 L 334.50,271.00 L 334.00,271.50 L 333.50,272.00 L 333.00,272.50 L 332.50,273.00 L 332.00,273.50 L 331.50,274.00 L 331.00,274.50 L 330.00,274.50 L 329.00,274.50 L 328.50,275.00 L 328.00,275.50 Z" fill="#34359a" fill-rule="evenodd" stroke="none" /><path d="M 437.00,229.50 L 436.00,229.50 L 435.00,229.50 L 434.00,229.50 L 433.00,229.50 L 432.00,229.50 L 431.00,229.50 L 430.00,229.50 L 429.50,229.00 L 429.50,228.00 L 429.50,227.00 L 429.50,226.00 L 429.50,225.00 L 429.50,224.00 L 429.50,223.00 L 429.50,222.00 L 429.50,221.00 L 430.00,220.50 L 430.50,220.00 L 431.00,219.50 L 432.00,219.50 L 433.00,219.50 L 434.00,219.50 L 435.00,219.50 L 436.00,219.50 L 436.50,220.00 L 437.00,220.50 L 437.50,221.00 L 437.50,222.00 L 437.50,223.00 L 437.50,224.00 L 437.50,225.00 L 437.50,226.00 L 437.50,227.00 L 437.50,228.00 L 437.50,229.00 L 437.00,229.50 Z" fill="#34359a" fill-rule="evenodd" stroke="none" /><path d="M 321.50,243.00 L 322.00,242.50 L 323.00,242.50 L 324.00,242.50 L 325.00,242.50 L 325.50,242.00 L 326.00,241.50 L 326.50,241.00 L 327.00,240.50 L 327.50,240.00 L 327.50,239.00 L 328.00,238.50 L 328.50,238.00 L 328.50,237.00 L 329.00,236.50 L 329.50,236.00 L 329.50,235.00 L 329.50,234.00 L 329.50,233.00 L 329.50,232.00 L 329.50,231.00 L 329.00,230.50 L 328.50,230.00 L 328.50,229.00 L 328.00,228.50 L 327.50,228.00 L 327.00,227.50 L 326.50,227.00 L 326.00,226.50 L 325.50,226.00 L 325.00,225.50 L 324.50,225.00 L 324.00,224.50 L 323.00,224.50 L 322.00,224.50 L 321.50,224.00 L 321.00,223.50 L 320.00,223.50 L 319.00,223.50 L 318.00,223.50 L 317.00,223.50 L 316.00,223.50 L 315.00,223.50 L 314.00,223.50 L 313.00,223.50 L 312.00,223.50 L 311.50,224.00 L 311.50,225.00 L 311.50,226.00 L 311.50,227.00 L 311.50,228.00 L 311.50,229.00 L 311.50,230.00 L 311.50,231.00 L 311.50,232.00 L 311.50,233.00 L 311.50,234.00 L 311.50,235.00 L 311.50,236.00 L 311.50,237.00 L 311.50,238.00 L 311.50,239.00 L 311.50,240.00 L 311.50,241.00 L 311.50,242.00 L 311.50,243.00 L 312.00,243.50 L 313.00,243.50 L 314.00,243.50 L 315.00,243.50 L 316.00,243.50 L 317.00,243.50 L 318.00,243.50 L 319.00,243.50 L 320.00,243.50 L 321.00,243.50 L 321.50,243.00 Z" fill="#34359a" fill-rule="evenodd" stroke="none" /><path d="M 217.00,276.50 L 216.00,276.50 L 215.00,276.50 L 214.00,276.50 L 213.00,276.50 L 212.00,276.50 L 211.00,276.50 L 210.50,276.00 L 210.00,275.50 L 209.00,275.50 L 208.00,275.50 L 207.50,275.00 L 207.00,274.50 L 206.50,274.00 L 206.00,273.50 L 205.50,273.00 L 205.50,272.00 L 205.00,271.50 L 204.50,271.00 L 204.50,270.00 L 204.00,269.50 L 203.50,269.00 L 203.50,268.00 L 203.50,267.00 L 203.50,266.00 L 203.50,265.00 L 203.50,264.00 L 203.50,263.00 L 203.50,262.00 L 203.50,261.00 L 203.50,260.00 L 203.50,259.00 L 203.50,258.00 L 203.50,257.00 L 203.50,256.00 L 203.50,255.00 L 203.50,254.00 L 203.50,253.00 L 203.50,252.00 L 203.50,251.00 L 203.50,250.00 L 203.50,249.00 L 203.50,248.00 L 203.50,247.00 L 203.50,246.00 L 203.50,245.00 L 203.50,244.00 L 203.50,243.00 L 203.50,242.00 L 203.00,241.50 L 202.00,241.50 L 201.00,241.50 L 200.00,241.50 L 199.00,241.50 L 198.00,241.50 L 197.50,241.00 L 197.50,240.00 L 197.50,239.00 L 197.50,238.00 L 198.00,237.50 L 199.00,237.50 L 200.00,237.50 L 200.50,237.00 L 201.00,236.50 L 201.50,236.00 L 202.00,235.50 L 202.50,235.00 L 202.50,234.00 L 203.00,233.50 L 203.50,233.00 L 203.50,232.00 L 203.50,231.00 L 204.00,230.50 L 204.50,230.00 L 204.50,229.00 L 204.50,228.00 L 204.50,227.00 L 204.50,226.00 L 205.00,225.50 L 206.00,225.50 L 207.00,225.50 L 208.00,225.50 L 209.00,225.50 L 210.00,225.50 L 211.00,225.50 L 211.50,226.00 L 211.50,227.00 L 211.50,228.00 L 211.50,229.00 L 211.50,230.00 L 211.50,231.00 L 211.50,232.00 L 211.50,233.00 L 211.50,234.00 L 211.50,235.00 L 212.00,235.50 L 213.00,235.50 L 214.00,235.50 L 215.00,235.50 L 216.00,235.50 L 217.00,235.50 L 218.00,235.50 L 219.00,235.50 L 220.00,235.50 L 221.00,235.50 L 222.00,235.50 L 223.00,235.50 L 223.50,236.00 L 223.50,237.00 L 223.50,238.00 L 223.50,239.00 L 223.50,240.00 L 223.50,241.00 L 223.00,241.50 L 222.00,241.50 L 221.00,241.50 L 220.00,241.50 L 219.00,241.50 L 218.00,241.50 L 217.00,241.50 L 216.00,241.50 L 215.00,241.50 L 214.00,241.50 L 213.00,241.50 L 212.00,241.50 L 211.50,242.00 L 211.50,243.00 L 211.50,244.00 L 211.50,245.00 L 211.50,246.00 L 211.50,247.00 L 211.50,248.00 L 211.50,249.00 L 211.50,250.00 L 211.50,251.00 L 211.50,252.00 L 211.50,253.00 L 211.50,254.00 L 211.50,255.00 L 211.50,256.00 L 211.50,257.00 L 211.50,258.00 L 211.50,259.00 L 211.50,260.00 L 211.50,261.00 L 211.50,262.00 L 212.00,262.50 L 212.50,263.00 L 212.50,264.00 L 212.50,265.00 L 212.50,266.00 L 212.50,267.00 L 213.00,267.50 L 213.50,268.00 L 213.50,269.00 L 214.00,269.50 L 215.00,269.50 L 215.50,270.00 L 216.00,270.50 L 217.00,270.50 L 218.00,270.50 L 218.50,270.00 L 219.00,269.50 L 220.00,269.50 L 220.50,269.00 L 221.00,268.50 L 222.00,268.50 L 222.50,268.00 L 223.00,267.50 L 223.50,268.00 L 224.00,268.50 L 224.50,269.00 L 224.50,270.00 L 224.50,271.00 L 224.00,271.50 L 223.50,272.00 L 223.50,273.00 L 223.00,273.50 L 222.50,274.00 L 222.00,274.50 L 221.00,274.50 L 220.50,275.00 L 220.00,275.50 L 219.00,275.50 L 218.00,275.50 L 217.50,276.00 L 217.00,276.50 Z" fill="#34359a" fill-rule="evenodd" stroke="none" /><path d="M 182.00,276.50 L 181.00,276.50 L 180.00,276.50 L 179.00,276.50 L 178.00,276.50 L 177.00,276.50 L 176.00,276.50 L 175.00,276.50 L 174.00,276.50 L 173.50,276.00 L 173.00,275.50 L 172.00,275.50 L 171.00,275.50 L 170.00,275.50 L 169.50,275.00 L 169.00,274.50 L 168.00,274.50 L 167.50,274.00 L 167.50,273.00 L 167.00,272.50 L 166.50,272.00 L 166.00,271.50 L 165.50,271.00 L 165.00,270.50 L 164.50,270.00 L 164.00,269.50 L 163.50,269.00 L 163.50,268.00 L 163.00,267.50 L 162.50,267.00 L 162.50,266.00 L 162.50,265.00 L 162.00,264.50 L 161.50,264.00 L 161.50,263.00 L 161.50,262.00 L 161.50,261.00 L 161.50,260.00 L 161.50,259.00 L 161.50,258.00 L 161.50,257.00 L 161.50,256.00 L 161.50,255.00 L 161.50,254.00 L 161.50,253.00 L 161.50,252.00 L 161.50,251.00 L 161.50,250.00 L 162.00,249.50 L 162.50,249.00 L 162.50,248.00 L 162.50,247.00 L 162.50,246.00 L 162.50,245.00 L 163.00,244.50 L 163.50,244.00 L 164.00,243.50 L 164.50,243.00 L 165.00,242.50 L 165.50,242.00 L 166.00,241.50 L 166.50,241.00 L 167.00,240.50 L 167.50,240.00 L 167.50,239.00 L 168.00,238.50 L 168.50,238.00 L 169.00,237.50 L 170.00,237.50 L 170.50,237.00 L 171.00,236.50 L 172.00,236.50 L 173.00,236.50 L 173.50,236.00 L 174.00,235.50 L 175.00,235.50 L 176.00,235.50 L 177.00,235.50 L 178.00,235.50 L 179.00,235.50 L 180.00,235.50 L 181.00,235.50 L 182.00,235.50 L 183.00,235.50 L 184.00,235.50 L 184.50,236.00 L 185.00,236.50 L 186.00,236.50 L 187.00,236.50 L 187.50,237.00 L 188.00,237.50 L 188.50,238.00 L 189.00,238.50 L 189.50,239.00 L 190.00,239.50 L 190.50,240.00 L 191.00,240.50 L 191.50,241.00 L 191.50,242.00 L 191.50,243.00 L 192.00,243.50 L 192.50,244.00 L 192.50,245.00 L 192.50,246.00 L 193.00,246.50 L 193.50,247.00 L 193.50,248.00 L 193.50,249.00 L 193.50,250.00 L 193.50,251.00 L 193.50,252.00 L 193.50,253.00 L 193.50,254.00 L 193.50,255.00 L 193.00,255.50 L 192.00,255.50 L 191.00,255.50 L 190.00,255.50 L 189.00,255.50 L 188.00,255.50 L 187.00,255.50 L 186.00,255.50 L 185.00,255.50 L 184.00,255.50 L 183.00,255.50 L 182.00,255.50 L 181.00,255.50 L 180.00,255.50 L 179.00,255.50 L 178.00,255.50 L 177.00,255.50 L 176.00,255.50 L 175.00,255.50 L 174.00,255.50 L 173.00,255.50 L 172.00,255.50 L 171.00,255.50 L 170.00,255.50 L 169.50,256.00 L 169.50,257.00 L 169.50,258.00 L 169.50,259.00 L 169.50,260.00 L 169.50,261.00 L 169.50,262.00 L 170.00,262.50 L 170.50,263.00 L 170.50,264.00 L 170.50,265.00 L 171.00,265.50 L 171.50,266.00 L 172.00,266.50 L 172.50,267.00 L 173.00,267.50 L 173.50,268.00 L 174.00,268.50 L 175.00,268.50 L 175.50,269.00 L 176.00,269.50 L 177.00,269.50 L 177.50,270.00 L 178.00,270.50 L 179.00,270.50 L 180.00,270.50 L 181.00,270.50 L 181.50,270.00 L 182.00,269.50 L 183.00,269.50 L 184.00,269.50 L 184.50,269.00 L 185.00,268.50 L 186.00,268.50 L 186.50,268.00 L 187.00,267.50 L 187.50,267.00 L 188.00,266.50 L 188.50,266.00 L 189.00,265.50 L 190.00,265.50 L 191.00,265.50 L 191.50,266.00 L 192.00,266.50 L 192.50,267.00 L 192.50,268.00 L 192.50,269.00 L 192.00,269.50 L 191.50,270.00 L 191.50,271.00 L 191.00,271.50 L 190.50,272.00 L 190.00,272.50 L 189.50,273.00 L 189.00,273.50 L 188.00,273.50 L 187.50,274.00 L 187.00,274.50 L 186.50,275.00 L 186.00,275.50 L 185.00,275.50 L 184.00,275.50 L 183.00,275.50 L 182.50,276.00 L 182.00,276.50 Z" fill="#34359a" fill-rule="evenodd" stroke="none" /><path d="M 263.00,276.50 L 262.00,276.50 L 261.00,276.50 L 260.00,276.50 L 259.00,276.50 L 258.00,276.50 L 257.00,276.50 L 256.00,276.50 L 255.00,276.50 L 254.00,276.50 L 253.00,276.50 L 252.00,276.50 L 251.50,276.00 L 251.00,275.50 L 250.00,275.50 L 249.00,275.50 L 248.00,275.50 L 247.00,275.50 L 246.00,275.50 L 245.50,275.00 L 245.00,274.50 L 244.50,274.00 L 244.50,273.00 L 244.50,272.00 L 244.50,271.00 L 244.50,270.00 L 244.50,269.00 L 244.50,268.00 L 244.50,267.00 L 244.50,266.00 L 244.50,265.00 L 245.00,264.50 L 246.00,264.50 L 247.00,264.50 L 248.00,264.50 L 249.00,264.50 L 249.50,265.00 L 250.00,265.50 L 250.50,266.00 L 250.50,267.00 L 251.00,267.50 L 251.50,268.00 L 251.50,269.00 L 252.00,269.50 L 252.50,270.00 L 253.00,270.50 L 253.50,271.00 L 254.00,271.50 L 255.00,271.50 L 256.00,271.50 L 257.00,271.50 L 258.00,271.50 L 259.00,271.50 L 260.00,271.50 L 261.00,271.50 L 262.00,271.50 L 262.50,271.00 L 263.00,270.50 L 263.50,270.00 L 264.00,269.50 L 264.50,269.00 L 265.00,268.50 L 265.50,268.00 L 265.50,267.00 L 265.50,266.00 L 265.50,265.00 L 265.00,264.50 L 264.50,264.00 L 264.50,263.00 L 264.00,262.50 L 263.00,262.50 L 262.50,262.00 L 262.00,261.50 L 261.50,261.00 L 261.00,260.50 L 260.00,260.50 L 259.50,260.00 L 259.00,259.50 L 258.00,259.50 L 257.50,259.00 L 257.00,258.50 L 256.00,258.50 L 255.50,258.00 L 255.00,257.50 L 254.00,257.50 L 253.50,257.00 L 253.00,256.50 L 252.50,256.00 L 252.00,255.50 L 251.00,255.50 L 250.50,255.00 L 250.00,254.50 L 249.00,254.50 L 248.50,254.00 L 248.00,253.50 L 247.50,253.00 L 247.00,252.50 L 246.50,252.00 L 246.50,251.00 L 246.00,250.50 L 245.50,250.00 L 245.50,249.00 L 245.50,248.00 L 245.50,247.00 L 245.50,246.00 L 245.50,245.00 L 245.50,244.00 L 245.50,243.00 L 246.00,242.50 L 246.50,242.00 L 247.00,241.50 L 247.50,241.00 L 247.50,240.00 L 248.00,239.50 L 248.50,239.00 L 249.00,238.50 L 249.50,238.00 L 250.00,237.50 L 251.00,237.50 L 251.50,237.00 L 252.00,236.50 L 253.00,236.50 L 254.00,236.50 L 254.50,236.00 L 255.00,235.50 L 256.00,235.50 L 257.00,235.50 L 258.00,235.50 L 259.00,235.50 L 260.00,235.50 L 261.00,235.50 L 262.00,235.50 L 263.00,235.50 L 264.00,235.50 L 265.00,235.50 L 266.00,235.50 L 267.00,235.50 L 268.00,235.50 L 269.00,235.50 L 269.50,236.00 L 270.00,236.50 L 271.00,236.50 L 272.00,236.50 L 272.50,237.00 L 272.50,238.00 L 272.50,239.00 L 272.50,240.00 L 272.50,241.00 L 272.50,242.00 L 272.50,243.00 L 272.50,244.00 L 272.50,245.00 L 272.00,245.50 L 271.00,245.50 L 270.00,245.50 L 269.00,245.50 L 268.00,245.50 L 267.00,245.50 L 266.50,245.00 L 266.50,244.00 L 266.00,243.50 L 265.50,243.00 L 265.50,242.00 L 265.00,241.50 L 264.50,241.00 L 264.00,240.50 L 263.00,240.50 L 262.00,240.50 L 261.00,240.50 L 260.00,240.50 L 259.00,240.50 L 258.00,240.50 L 257.00,240.50 L 256.50,241.00 L 256.00,241.50 L 255.00,241.50 L 254.50,242.00 L 254.50,243.00 L 254.00,243.50 L 253.50,244.00 L 253.50,245.00 L 254.00,245.50 L 254.50,246.00 L 254.50,247.00 L 255.00,247.50 L 255.50,248.00 L 256.00,248.50 L 256.50,249.00 L 257.00,249.50 L 257.50,250.00 L 258.00,250.50 L 259.00,250.50 L 259.50,251.00 L 260.00,251.50 L 260.50,252.00 L 261.00,252.50 L 262.00,252.50 L 262.50,253.00 L 263.00,253.50 L 264.00,253.50 L 265.00,253.50 L 266.00,253.50 L 266.50,254.00 L 267.00,254.50 L 267.50,255.00 L 268.00,255.50 L 269.00,255.50 L 269.50,256.00 L 269.50,257.00 L 270.00,257.50 L 270.50,258.00 L 271.00,258.50 L 271.50,259.00 L 272.00,259.50 L 272.50,260.00 L 272.50,261.00 L 273.00,261.50 L 273.50,262.00 L 273.50,263.00 L 273.50,264.00 L 273.50,265.00 L 273.50,266.00 L 273.50,267.00 L 273.00,267.50 L 272.50,268.00 L 272.50,269.00 L 272.00,269.50 L 271.50,270.00 L 271.50,271.00 L 271.00,271.50 L 270.50,272.00 L 270.00,272.50 L 269.50,273.00 L 269.00,273.50 L 268.50,274.00 L 268.00,274.50 L 267.50,275.00 L 267.00,275.50 L 266.00,275.50 L 265.00,275.50 L 264.00,275.50 L 263.50,276.00 L 263.00,276.50 Z" fill="#34359a" fill-rule="evenodd" stroke="none" /><path d="M 367.00,276.50 L 366.00,276.50 L 365.00,276.50 L 364.00,276.50 L 363.00,276.50 L 362.00,276.50 L 361.00,276.50 L 360.00,276.50 L 359.00,276.50 L 358.50,276.00 L 358.00,275.50 L 357.00,275.50 L 356.00,275.50 L 355.00,275.50 L 354.50,275.00 L 354.00,274.50 L 353.50,274.00 L 353.00,273.50 L 352.50,273.00 L 352.00,272.50 L 351.50,272.00 L 351.00,271.50 L 350.50,271.00 L 350.00,270.50 L 349.50,270.00 L 349.50,269.00 L 349.00,268.50 L 348.50,268.00 L 348.50,267.00 L 348.00,266.50 L 347.50,266.00 L 347.50,265.00 L 347.00,264.50 L 346.50,264.00 L 346.50,263.00 L 346.50,262.00 L 346.50,261.00 L 346.50,260.00 L 346.50,259.00 L 346.50,258.00 L 346.50,257.00 L 346.50,256.00 L 346.50,255.00 L 346.50,254.00 L 346.50,253.00 L 346.50,252.00 L 346.50,251.00 L 346.50,250.00 L 346.50,249.00 L 347.00,248.50 L 347.50,248.00 L 347.50,247.00 L 347.50,246.00 L 348.00,245.50 L 348.50,245.00 L 348.50,244.00 L 349.00,243.50 L 349.50,243.00 L 350.00,242.50 L 350.50,242.00 L 351.00,241.50 L 351.50,241.00 L 352.00,240.50 L 352.50,240.00 L 353.00,239.50 L 353.50,239.00 L 353.50,238.00 L 354.00,237.50 L 355.00,237.50 L 355.50,237.00 L 356.00,236.50 L 357.00,236.50 L 358.00,236.50 L 358.50,236.00 L 359.00,235.50 L 360.00,235.50 L 361.00,235.50 L 362.00,235.50 L 363.00,235.50 L 364.00,235.50 L 365.00,235.50 L 366.00,235.50 L 367.00,235.50 L 368.00,235.50 L 369.00,235.50 L 369.50,236.00 L 370.00,236.50 L 371.00,236.50 L 372.00,236.50 L 372.50,237.00 L 373.00,237.50 L 374.00,237.50 L 374.50,238.00 L 375.00,238.50 L 375.50,239.00 L 375.50,240.00 L 376.00,240.50 L 376.50,241.00 L 376.50,242.00 L 377.00,242.50 L 377.50,243.00 L 377.50,244.00 L 377.50,245.00 L 378.00,245.50 L 378.50,246.00 L 378.50,247.00 L 378.50,248.00 L 378.50,249.00 L 379.00,249.50 L 379.50,250.00 L 379.50,251.00 L 379.50,252.00 L 379.50,253.00 L 379.50,254.00 L 379.50,255.00 L 379.00,255.50 L 378.00,255.50 L 377.00,255.50 L 376.00,255.50 L 375.00,255.50 L 374.00,255.50 L 373.00,255.50 L 372.00,255.50 L 371.00,255.50 L 370.00,255.50 L 369.00,255.50 L 368.00,255.50 L 367.00,255.50 L 366.00,255.50 L 365.00,255.50 L 364.00,255.50 L 363.00,255.50 L 362.00,255.50 L 361.00,255.50 L 360.00,255.50 L 359.00,255.50 L 358.00,255.50 L 357.00,255.50 L 356.00,255.50 L 355.50,256.00 L 355.50,257.00 L 355.50,258.00 L 355.50,259.00 L 355.50,260.00 L 355.50,261.00 L 355.50,262.00 L 355.50,263.00 L 355.50,264.00 L 356.00,264.50 L 356.50,265.00 L 356.50,266.00 L 357.00,266.50 L 357.50,267.00 L 358.00,267.50 L 358.50,268.00 L 359.00,268.50 L 360.00,268.50 L 360.50,269.00 L 361.00,269.50 L 362.00,269.50 L 362.50,270.00 L 363.00,270.50 L 364.00,270.50 L 365.00,270.50 L 366.00,270.50 L 367.00,270.50 L 367.50,270.00 L 368.00,269.50 L 369.00,269.50 L 369.50,269.00 L 370.00,268.50 L 371.00,268.50 L 371.50,268.00 L 372.00,267.50 L 372.50,267.00 L 373.00,266.50 L 374.00,266.50 L 374.50,266.00 L 375.00,265.50 L 375.50,265.00 L 376.00,264.50 L 376.50,265.00 L 377.00,265.50 L 377.50,266.00 L 377.50,267.00 L 378.00,267.50 L 378.50,268.00 L 378.00,268.50 L 377.50,269.00 L 377.50,270.00 L 377.00,270.50 L 376.50,271.00 L 376.00,271.50 L 375.50,272.00 L 375.00,272.50 L 374.50,273.00 L 374.00,273.50 L 373.50,274.00 L 373.00,274.50 L 372.00,274.50 L 371.50,275.00 L 371.00,275.50 L 370.00,275.50 L 369.00,275.50 L 368.00,275.50 L 367.50,276.00 L 367.00,276.50 Z" fill="#34359a" fill-rule="evenodd" stroke="none" /><path d="M 409.00,293.50 L 408.00,293.50 L 407.00,293.50 L 406.00,293.50 L 405.00,293.50 L 404.00,293.50 L 403.00,293.50 L 402.00,293.50 L 401.00,293.50 L 400.00,293.50 L 399.00,293.50 L 398.00,293.50 L 397.00,293.50 L 396.00,293.50 L 395.00,293.50 L 394.00,293.50 L 393.50,293.00 L 393.00,292.50 L 392.00,292.50 L 391.00,292.50 L 390.00,292.50 L 389.50,292.00 L 389.00,291.50 L 388.00,291.50 L 387.50,291.00 L 387.00,290.50 L 386.50,290.00 L 386.00,289.50 L 385.50,289.00 L 385.50,288.00 L 385.00,287.50 L 384.50,287.00 L 384.50,286.00 L 384.50,285.00 L 384.50,284.00 L 384.50,283.00 L 384.50,282.00 L 384.50,281.00 L 385.00,280.50 L 385.50,280.00 L 385.50,279.00 L 385.50,278.00 L 386.00,277.50 L 386.50,277.00 L 387.00,276.50 L 387.50,276.00 L 388.00,275.50 L 388.50,275.00 L 388.00,274.50 L 387.50,274.00 L 387.00,273.50 L 386.50,273.00 L 386.50,272.00 L 386.00,271.50 L 385.50,271.00 L 385.50,270.00 L 385.50,269.00 L 385.50,268.00 L 385.50,267.00 L 386.00,266.50 L 386.50,266.00 L 386.50,265.00 L 387.00,264.50 L 387.50,264.00 L 388.00,263.50 L 388.50,263.00 L 389.00,262.50 L 390.00,262.50 L 390.50,262.00 L 390.50,261.00 L 390.50,260.00 L 390.00,259.50 L 389.50,259.00 L 389.00,258.50 L 388.50,258.00 L 388.00,257.50 L 387.50,257.00 L 387.50,256.00 L 387.00,255.50 L 386.50,255.00 L 386.50,254.00 L 386.50,253.00 L 386.00,252.50 L 385.50,252.00 L 385.50,251.00 L 385.50,250.00 L 385.50,249.00 L 385.50,248.00 L 385.50,247.00 L 386.00,246.50 L 386.50,246.00 L 386.50,245.00 L 386.50,244.00 L 386.50,243.00 L 387.00,242.50 L 387.50,242.00 L 388.00,241.50 L 388.50,241.00 L 389.00,240.50 L 389.50,240.00 L 390.00,239.50 L 390.50,239.00 L 391.00,238.50 L 391.50,238.00 L 392.00,237.50 L 392.50,237.00 L 393.00,236.50 L 394.00,236.50 L 395.00,236.50 L 396.00,236.50 L 396.50,236.00 L 397.00,235.50 L 398.00,235.50 L 399.00,235.50 L 400.00,235.50 L 401.00,235.50 L 402.00,235.50 L 403.00,235.50 L 404.00,235.50 L 405.00,235.50 L 406.00,235.50 L 407.00,235.50 L 408.00,235.50 L 409.00,235.50 L 410.00,235.50 L 411.00,235.50 L 412.00,235.50 L 413.00,235.50 L 414.00,235.50 L 415.00,235.50 L 416.00,235.50 L 417.00,235.50 L 418.00,235.50 L 419.00,235.50 L 420.00,235.50 L 421.00,235.50 L 421.50,236.00 L 421.50,237.00 L 421.50,238.00 L 421.50,239.00 L 421.50,240.00 L 421.50,241.00 L 421.00,241.50 L 420.00,241.50 L 419.00,241.50 L 418.00,241.50 L 417.00,241.50 L 416.00,241.50 L 415.50,242.00 L 415.50,243.00 L 416.00,243.50 L 416.50,244.00 L 416.50,245.00 L 416.50,246.00 L 416.50,247.00 L 416.50,248.00 L 416.50,249.00 L 416.50,250.00 L 416.50,251.00 L 416.50,252.00 L 416.50,253.00 L 416.50,254.00 L 416.00,254.50 L 415.50,255.00 L 415.50,256.00 L 415.00,256.50 L 414.50,257.00 L 414.00,257.50 L 413.50,258.00 L 413.00,258.50 L 412.50,259.00 L 412.00,259.50 L 411.50,260.00 L 411.00,260.50 L 410.50,261.00 L 410.00,261.50 L 409.50,262.00 L 409.00,262.50 L 408.00,262.50 L 407.00,262.50 L 406.00,262.50 L 405.00,262.50 L 404.50,263.00 L 404.00,263.50 L 403.00,263.50 L 402.00,263.50 L 401.00,263.50 L 400.00,263.50 L 399.00,263.50 L 398.00,263.50 L 397.50,263.00 L 397.00,262.50 L 396.00,262.50 L 395.50,263.00 L 395.00,263.50 L 394.50,264.00 L 394.00,264.50 L 393.50,265.00 L 393.50,266.00 L 393.50,267.00 L 393.50,268.00 L 394.00,268.50 L 395.00,268.50 L 395.50,269.00 L 396.00,269.50 L 397.00,269.50 L 398.00,269.50 L 399.00,269.50 L 400.00,269.50 L 401.00,269.50 L 402.00,269.50 L 403.00,269.50 L 404.00,269.50 L 405.00,269.50 L 406.00,269.50 L 407.00,269.50 L 408.00,269.50 L 409.00,269.50 L 410.00,269.50 L 411.00,269.50 L 412.00,269.50 L 412.50,270.00 L 413.00,270.50 L 414.00,270.50 L 415.00,270.50 L 415.50,271.00 L 416.00,271.50 L 417.00,271.50 L 417.50,272.00 L 418.00,272.50 L 418.50,273.00 L 419.00,273.50 L 419.50,274.00 L 419.50,275.00 L 420.00,275.50 L 420.50,276.00 L 420.50,277.00 L 420.50,278.00 L 420.50,279.00 L 420.50,280.00 L 420.50,281.00 L 420.50,282.00 L 420.50,283.00 L 420.50,284.00 L 420.50,285.00 L 420.00,285.50 L 419.50,286.00 L 419.50,287.00 L 419.00,287.50 L 418.00,287.50 L 417.50,288.00 L 417.00,288.50 L 416.50,289.00 L 416.00,289.50 L 415.50,290.00 L 415.00,290.50 L 414.50,291.00 L 414.00,291.50 L 413.00,291.50 L 412.50,292.00 L 412.00,292.50 L 411.00,292.50 L 410.00,292.50 L 409.50,293.00 L 409.00,293.50 Z" fill="#34359a" fill-rule="evenodd" stroke="none" /><path d="M 441.00,275.50 L 440.00,275.50 L 439.00,275.50 L 438.00,275.50 L 437.00,275.50 L 436.00,275.50 L 435.00,275.50 L 434.00,275.50 L 433.00,275.50 L 432.00,275.50 L 431.00,275.50 L 430.00,275.50 L 429.00,275.50 L 428.00,275.50 L 427.00,275.50 L 426.00,275.50 L 425.00,275.50 L 424.50,275.00 L 424.50,274.00 L 424.50,273.00 L 425.00,272.50 L 426.00,272.50 L 426.50,272.00 L 427.00,271.50 L 428.00,271.50 L 428.50,271.00 L 428.50,270.00 L 429.00,269.50 L 429.50,269.00 L 429.50,268.00 L 429.50,267.00 L 429.50,266.00 L 429.50,265.00 L 429.50,264.00 L 429.50,263.00 L 429.50,262.00 L 429.50,261.00 L 429.50,260.00 L 429.50,259.00 L 429.50,258.00 L 429.50,257.00 L 429.50,256.00 L 429.50,255.00 L 429.50,254.00 L 429.50,253.00 L 429.50,252.00 L 429.50,251.00 L 429.50,250.00 L 429.50,249.00 L 429.50,248.00 L 429.50,247.00 L 429.50,246.00 L 429.50,245.00 L 429.50,244.00 L 429.50,243.00 L 429.00,242.50 L 428.50,242.00 L 428.50,241.00 L 428.00,240.50 L 427.00,240.50 L 426.50,240.00 L 426.00,239.50 L 425.00,239.50 L 424.50,239.00 L 424.50,238.00 L 424.50,237.00 L 424.50,236.00 L 425.00,235.50 L 426.00,235.50 L 427.00,235.50 L 428.00,235.50 L 429.00,235.50 L 430.00,235.50 L 431.00,235.50 L 432.00,235.50 L 433.00,235.50 L 434.00,235.50 L 435.00,235.50 L 436.00,235.50 L 437.00,235.50 L 437.50,236.00 L 437.50,237.00 L 437.50,238.00 L 437.50,239.00 L 437.50,240.00 L 437.50,241.00 L 437.50,242.00 L 437.50,243.00 L 437.50,244.00 L 437.50,245.00 L 437.50,246.00 L 437.50,247.00 L 437.50,248.00 L 437.50,249.00 L 437.50,250.00 L 437.50,251.00 L 437.50,252.00 L 437.50,253.00 L 437.50,254.00 L 437.50,255.00 L 437.50,256.00 L 437.50,257.00 L 437.50,258.00 L 437.50,259.00 L 437.50,260.00 L 437.50,261.00 L 437.50,262.00 L 437.50,263.00 L 437.50,264.00 L 437.50,265.00 L 437.50,266.00 L 437.50,267.00 L 437.50,268.00 L 437.50,269.00 L 437.50,270.00 L 438.00,270.50 L 438.50,271.00 L 439.00,271.50 L 440.00,271.50 L 440.50,272.00 L 441.00,272.50 L 441.50,273.00 L 441.50,274.00 L 441.50,275.00 L 441.00,275.50 Z" fill="#34359a" fill-rule="evenodd" stroke="none" /><path d="M 486.00,275.50 L 485.00,275.50 L 484.00,275.50 L 483.00,275.50 L 482.00,275.50 L 481.00,275.50 L 480.00,275.50 L 479.00,275.50 L 478.00,275.50 L 477.00,275.50 L 476.00,275.50 L 475.00,275.50 L 474.00,275.50 L 473.00,275.50 L 472.00,275.50 L 471.00,275.50 L 470.50,275.00 L 470.50,274.00 L 470.50,273.00 L 471.00,272.50 L 471.50,272.00 L 472.00,271.50 L 473.00,271.50 L 473.50,271.00 L 473.50,270.00 L 473.50,269.00 L 473.50,268.00 L 473.50,267.00 L 473.50,266.00 L 473.50,265.00 L 473.50,264.00 L 473.50,263.00 L 473.50,262.00 L 473.50,261.00 L 473.50,260.00 L 473.50,259.00 L 473.50,258.00 L 473.50,257.00 L 473.50,256.00 L 473.50,255.00 L 473.50,254.00 L 473.50,253.00 L 473.50,252.00 L 473.50,251.00 L 473.50,250.00 L 473.50,249.00 L 473.50,248.00 L 473.50,247.00 L 473.50,246.00 L 473.50,245.00 L 473.00,244.50 L 472.50,244.00 L 472.00,243.50 L 471.50,243.00 L 471.00,242.50 L 470.50,242.00 L 470.00,241.50 L 469.00,241.50 L 468.00,241.50 L 467.00,241.50 L 466.00,241.50 L 465.50,242.00 L 465.00,242.50 L 464.00,242.50 L 463.50,243.00 L 463.50,244.00 L 463.00,244.50 L 462.00,244.50 L 461.50,245.00 L 461.00,245.50 L 460.50,246.00 L 460.50,247.00 L 460.00,247.50 L 459.50,248.00 L 459.50,249.00 L 459.50,250.00 L 459.50,251.00 L 459.50,252.00 L 459.50,253.00 L 459.50,254.00 L 459.50,255.00 L 459.50,256.00 L 459.50,257.00 L 459.50,258.00 L 459.50,259.00 L 459.50,260.00 L 459.50,261.00 L 459.50,262.00 L 459.50,263.00 L 459.50,264.00 L 459.50,265.00 L 459.50,266.00 L 459.50,267.00 L 459.50,268.00 L 459.50,269.00 L 460.00,269.50 L 460.50,270.00 L 460.50,271.00 L 461.00,271.50 L 462.00,271.50 L 462.50,272.00 L 463.00,272.50 L 463.50,273.00 L 463.50,274.00 L 463.50,275.00 L 463.00,275.50 L 462.00,275.50 L 461.00,275.50 L 460.00,275.50 L 459.00,275.50 L 458.00,275.50 L 457.00,275.50 L 456.00,275.50 L 455.00,275.50 L 454.00,275.50 L 453.00,275.50 L 452.00,275.50 L 451.00,275.50 L 450.00,275.50 L 449.00,275.50 L 448.00,275.50 L 447.50,275.00 L 447.50,274.00 L 447.50,273.00 L 448.00,272.50 L 448.50,272.00 L 449.00,271.50 L 450.00,271.50 L 450.50,271.00 L 451.00,270.50 L 451.50,270.00 L 451.50,269.00 L 451.50,268.00 L 451.50,267.00 L 451.50,266.00 L 451.50,265.00 L 451.50,264.00 L 451.50,263.00 L 451.50,262.00 L 451.50,261.00 L 451.50,260.00 L 451.50,259.00 L 451.50,258.00 L 451.50,257.00 L 451.50,256.00 L 451.50,255.00 L 451.50,254.00 L 451.50,253.00 L 451.50,252.00 L 451.50,251.00 L 451.50,250.00 L 451.50,249.00 L 451.50,248.00 L 451.50,247.00 L 451.50,246.00 L 451.50,245.00 L 451.50,244.00 L 451.50,243.00 L 451.50,242.00 L 451.00,241.50 L 450.50,241.00 L 450.00,240.50 L 449.50,240.00 L 449.00,239.50 L 448.00,239.50 L 447.00,239.50 L 446.50,239.00 L 446.50,238.00 L 446.50,237.00 L 446.50,236.00 L 447.00,235.50 L 448.00,235.50 L 449.00,235.50 L 450.00,235.50 L 451.00,235.50 L 452.00,235.50 L 453.00,235.50 L 454.00,235.50 L 455.00,235.50 L 456.00,235.50 L 457.00,235.50 L 458.00,235.50 L 459.00,235.50 L 459.50,236.00 L 459.50,237.00 L 459.50,238.00 L 459.50,239.00 L 459.50,240.00 L 459.50,241.00 L 460.00,241.50 L 460.50,241.00 L 461.00,240.50 L 461.50,240.00 L 462.00,239.50 L 462.50,239.00 L 462.50,238.00 L 463.00,237.50 L 464.00,237.50 L 464.50,237.00 L 465.00,236.50 L 466.00,236.50 L 466.50,236.00 L 467.00,235.50 L 468.00,235.50 L 469.00,235.50 L 470.00,235.50 L 471.00,235.50 L 472.00,235.50 L 473.00,235.50 L 474.00,235.50 L 475.00,235.50 L 475.50,236.00 L 476.00,236.50 L 477.00,236.50 L 477.50,237.00 L 478.00,237.50 L 479.00,237.50 L 479.50,238.00 L 479.50,239.00 L 480.00,239.50 L 480.50,240.00 L 480.50,241.00 L 481.00,241.50 L 481.50,242.00 L 481.50,243.00 L 482.00,243.50 L 482.50,244.00 L 482.50,245.00 L 482.50,246.00 L 482.50,247.00 L 482.50,248.00 L 482.50,249.00 L 482.50,250.00 L 482.50,251.00 L 482.50,252.00 L 482.50,253.00 L 482.50,254.00 L 482.50,255.00 L 482.50,256.00 L 482.50,257.00 L 482.50,258.00 L 482.50,259.00 L 482.50,260.00 L 482.50,261.00 L 482.50,262.00 L 482.50,263.00 L 482.50,264.00 L 482.50,265.00 L 482.50,266.00 L 482.50,267.00 L 482.50,268.00 L 482.50,269.00 L 483.00,269.50 L 483.50,270.00 L 483.50,271.00 L 484.00,271.50 L 485.00,271.50 L 485.50,272.00 L 486.00,272.50 L 486.50,273.00 L 486.50,274.00 L 486.50,275.00 L 486.00,275.50 Z" fill="#34359a" fill-rule="evenodd" stroke="none" /><path d="M 185.50,251.00 L 185.50,250.00 L 185.50,249.00 L 185.50,248.00 L 185.00,247.50 L 184.50,247.00 L 184.50,246.00 L 184.50,245.00 L 184.50,244.00 L 184.00,243.50 L 183.50,243.00 L 183.00,242.50 L 182.50,242.00 L 182.00,241.50 L 181.50,241.00 L 181.00,240.50 L 180.00,240.50 L 179.00,240.50 L 178.00,240.50 L 177.00,240.50 L 176.00,240.50 L 175.00,240.50 L 174.50,241.00 L 174.00,241.50 L 173.50,242.00 L 173.00,242.50 L 172.50,243.00 L 172.00,243.50 L 171.50,244.00 L 171.00,244.50 L 170.50,245.00 L 170.50,246.00 L 170.50,247.00 L 170.50,248.00 L 170.00,248.50 L 169.50,249.00 L 169.50,250.00 L 169.50,251.00 L 170.00,251.50 L 171.00,251.50 L 172.00,251.50 L 173.00,251.50 L 174.00,251.50 L 175.00,251.50 L 176.00,251.50 L 177.00,251.50 L 178.00,251.50 L 179.00,251.50 L 180.00,251.50 L 181.00,251.50 L 182.00,251.50 L 183.00,251.50 L 184.00,251.50 L 185.00,251.50 L 185.50,251.00 Z" fill="#34359a" fill-rule="evenodd" stroke="none" /><path d="M 370.50,251.00 L 370.50,250.00 L 370.50,249.00 L 370.50,248.00 L 370.50,247.00 L 370.50,246.00 L 370.00,245.50 L 369.50,245.00 L 369.50,244.00 L 369.00,243.50 L 368.50,243.00 L 368.50,242.00 L 368.00,241.50 L 367.50,241.00 L 367.00,240.50 L 366.00,240.50 L 365.00,240.50 L 364.00,240.50 L 363.00,240.50 L 362.00,240.50 L 361.00,240.50 L 360.00,240.50 L 359.50,241.00 L 359.00,241.50 L 358.50,242.00 L 358.00,242.50 L 357.50,243.00 L 357.00,243.50 L 356.50,244.00 L 356.00,244.50 L 355.50,245.00 L 355.50,246.00 L 355.50,247.00 L 355.50,248.00 L 355.50,249.00 L 355.50,250.00 L 355.50,251.00 L 356.00,251.50 L 357.00,251.50 L 358.00,251.50 L 359.00,251.50 L 360.00,251.50 L 361.00,251.50 L 362.00,251.50 L 363.00,251.50 L 364.00,251.50 L 365.00,251.50 L 366.00,251.50 L 367.00,251.50 L 368.00,251.50 L 369.00,251.50 L 370.00,251.50 L 370.50,251.00 Z" fill="#34359a" fill-rule="evenodd" stroke="none" /><path d="M 404.50,258.00 L 405.00,257.50 L 406.00,257.50 L 406.50,257.00 L 406.50,256.00 L 407.00,255.50 L 407.50,255.00 L 407.50,254.00 L 407.50,253.00 L 407.50,252.00 L 407.50,251.00 L 407.50,250.00 L 407.50,249.00 L 407.50,248.00 L 407.50,247.00 L 407.50,246.00 L 407.50,245.00 L 407.50,244.00 L 407.50,243.00 L 407.00,242.50 L 406.50,242.00 L 406.00,241.50 L 405.50,241.00 L 405.00,240.50 L 404.00,240.50 L 403.00,240.50 L 402.00,240.50 L 401.00,240.50 L 400.00,240.50 L 399.00,240.50 L 398.50,241.00 L 398.00,241.50 L 397.50,242.00 L 397.00,242.50 L 396.50,243.00 L 396.00,243.50 L 395.50,244.00 L 395.50,245.00 L 395.00,245.50 L 394.50,246.00 L 394.50,247.00 L 394.50,248.00 L 394.50,249.00 L 394.50,250.00 L 394.50,251.00 L 394.50,252.00 L 395.00,252.50 L 395.50,253.00 L 395.50,254.00 L 396.00,254.50 L 396.50,255.00 L 397.00,255.50 L 397.50,256.00 L 397.50,257.00 L 398.00,257.50 L 398.50,258.00 L 399.00,258.50 L 400.00,258.50 L 401.00,258.50 L 402.00,258.50 L 403.00,258.50 L 404.00,258.50 L 404.50,258.00 Z" fill="#34359a" fill-rule="evenodd" stroke="none" /><path d="M 322.50,270.00 L 323.00,269.50 L 324.00,269.50 L 325.00,269.50 L 325.50,269.00 L 326.00,268.50 L 326.50,268.00 L 327.00,267.50 L 327.50,267.00 L 328.00,266.50 L 328.50,266.00 L 329.00,265.50 L 329.50,265.00 L 329.50,264.00 L 329.50,263.00 L 329.50,262.00 L 329.50,261.00 L 329.50,260.00 L 329.50,259.00 L 329.50,258.00 L 329.50,257.00 L 329.50,256.00 L 329.50,255.00 L 329.00,254.50 L 328.50,254.00 L 328.00,253.50 L 327.50,253.00 L 327.00,252.50 L 326.50,252.00 L 326.00,251.50 L 325.50,251.00 L 325.00,250.50 L 324.00,250.50 L 323.50,250.00 L 323.00,249.50 L 322.00,249.50 L 321.00,249.50 L 320.00,249.50 L 319.00,249.50 L 318.00,249.50 L 317.00,249.50 L 316.00,249.50 L 315.00,249.50 L 314.00,249.50 L 313.00,249.50 L 312.00,249.50 L 311.50,250.00 L 311.50,251.00 L 311.50,252.00 L 311.50,253.00 L 311.50,254.00 L 311.50,255.00 L 311.50,256.00 L 311.50,257.00 L 311.50,258.00 L 311.50,259.00 L 311.50,260.00 L 311.50,261.00 L 311.50,262.00 L 311.50,263.00 L 311.50,264.00 L 311.50,265.00 L 311.50,266.00 L 311.50,267.00 L 311.50,268.00 L 311.50,269.00 L 311.50,270.00 L 312.00,270.50 L 313.00,270.50 L 314.00,270.50 L 315.00,270.50 L 316.00,270.50 L 317.00,270.50 L 318.00,270.50 L 319.00,270.50 L 320.00,270.50 L 321.00,270.50 L 322.00,270.50 L 322.50,270.00 Z" fill="#34359a" fill-rule="evenodd" stroke="none" /><path d="M 408.50,288.00 L 409.00,287.50 L 409.50,287.00 L 410.00,286.50 L 411.00,286.50 L 411.50,286.00 L 411.50,285.00 L 412.00,284.50 L 412.50,284.00 L 412.50,283.00 L 412.50,282.00 L 412.50,281.00 L 412.50,280.00 L 412.00,279.50 L 411.50,279.00 L 411.50,278.00 L 411.00,277.50 L 410.00,277.50 L 409.50,277.00 L 409.00,276.50 L 408.00,276.50 L 407.00,276.50 L 406.00,276.50 L 405.00,276.50 L 404.00,276.50 L 403.00,276.50 L 402.00,276.50 L 401.00,276.50 L 400.00,276.50 L 399.00,276.50 L 398.00,276.50 L 397.00,276.50 L 396.00,276.50 L 395.00,276.50 L 394.50,277.00 L 394.00,277.50 L 393.50,278.00 L 393.00,278.50 L 392.50,279.00 L 392.50,280.00 L 392.00,280.50 L 391.50,281.00 L 391.50,282.00 L 391.50,283.00 L 391.50,284.00 L 391.50,285.00 L 392.00,285.50 L 392.50,286.00 L 393.00,286.50 L 393.50,287.00 L 394.00,287.50 L 394.50,288.00 L 395.00,288.50 L 396.00,288.50 L 397.00,288.50 L 398.00,288.50 L 399.00,288.50 L 400.00,288.50 L 401.00,288.50 L 402.00,288.50 L 403.00,288.50 L 404.00,288.50 L 405.00,288.50 L 406.00,288.50 L 407.00,288.50 L 408.00,288.50 L 408.50,288.00 Z" fill="#34359a" fill-rule="evenodd" stroke="none" /></svg>